<?xml version="1.0" standalone="no"?>
<!DOCTYPE svg PUBLIC "-//W3C//DTD SVG 20010904//EN"
 "http://www.w3.org/TR/2001/REC-SVG-20010904/DTD/svg10.dtd">
<svg version="1.0" xmlns="http://www.w3.org/2000/svg"
 width="826.000000pt" height="550.000000pt" viewBox="0 0 826.000000 550.000000"
 preserveAspectRatio="xMidYMid meet">

<g transform="translate(0.000000,550.000000) scale(0.100000,-0.100000)"
fill="#000000" stroke="none">
<path d="M988 5224 c-57 -18 -111 -76 -127 -139 -8 -31 -11 -645 -11 -2143 0
-1782 2 -2106 14 -2146 12 -40 12 -51 1 -73 -10 -20 -11 -31 -3 -40 8 -9 7
-13 -2 -13 -9 0 -9 -4 -2 -12 10 -13 12 -18 12 -39 0 -6 8 -8 18 -5 9 4 1 -6
-18 -21 l-35 -28 64 -10 64 -10 19 -63 c14 -42 25 -62 36 -63 11 0 12 -2 5 -6
-7 -2 -13 -9 -13 -14 0 -5 497 -9 1244 -9 986 0 1245 -3 1249 -12 4 -10 6 -10
6 0 1 9 391 12 1914 13 1051 1 1904 3 1895 6 -18 4 -26 43 -9 43 5 0 14 14 21
30 7 17 16 30 21 30 5 0 9 9 9 20 0 11 5 20 10 20 21 0 25 2 41 16 9 8 19 11
24 7 4 -5 5 -2 1 5 -4 6 -14 12 -23 12 -20 0 -113 59 -113 72 0 5 -4 6 -10 3
-5 -3 -10 -2 -10 2 0 5 -28 23 -62 41 l-63 31 -1399 1 c-769 0 -1403 -3 -1410
-7 -18 -12 -46 -14 -46 -3 0 16 -685 13 -710 -2 -15 -10 -27 -10 -52 0 -25 8
-329 11 -1212 11 -648 0 -1181 3 -1184 6 -3 3 1360 4 3029 3 l3034 -3 73 -48
c40 -27 76 -55 79 -63 3 -8 8 -12 13 -9 4 2 20 1 37 -4 24 -7 29 -6 30 10 1
12 -3 17 -10 13 -8 -5 -8 -3 1 7 17 18 16 88 -2 95 -12 5 -12 11 2 42 16 34
17 200 17 2167 l0 2130 -25 50 c-27 53 -70 88 -129 105 -24 6 -1091 10 -3146
9 -2678 0 -3117 -2 -3157 -15z m6278 -275 c4 -6 7 -891 8 -1965 l1 -1954 -257
0 -258 0 0 156 c0 88 -4 164 -10 175 -10 18 -26 19 -455 19 -429 0 -445 -1
-455 -19 -6 -11 -10 -87 -10 -175 l0 -156 -90 0 -90 0 0 164 c0 128 -3 166
-14 175 -17 14 -446 14 -446 1 0 -5 -9 -8 -20 -7 -11 1 -20 5 -20 9 0 16 -169
9 -198 -8 -25 -15 -25 -15 -8 0 18 15 12 16 -87 16 -142 0 -139 4 -135 -199
l3 -151 -87 0 -88 0 0 159 c0 132 -3 162 -16 175 -14 14 -62 16 -397 15 -210
-1 -372 -4 -359 -6 22 -4 22 -6 22 -174 l0 -169 -85 0 -85 0 -2 103 -2 102 -3
-102 -4 -103 -232 0 c-147 0 -227 4 -217 10 8 5 11 13 6 17 -4 4 -13 0 -20
-10 -12 -15 -31 -17 -149 -17 -117 0 -136 2 -131 15 4 8 18 15 33 14 23 0 24
-1 6 -9 -16 -7 -13 -9 17 -9 20 -1 40 4 44 10 4 8 0 9 -15 4 -14 -4 -21 -2
-22 7 -2 18 -1 21 6 41 5 12 2 17 -10 17 -22 0 -14 24 10 28 10 2 15 0 11 -6
-3 -6 -2 -13 4 -17 6 -4 10 5 10 21 0 15 -3 24 -7 21 -3 -4 -12 -2 -20 4 -10
9 -10 15 -2 25 15 18 35 18 43 -1 4 -13 9 -13 25 -3 15 9 23 9 35 -1 9 -7 13
-18 9 -24 -4 -6 3 -8 20 -3 16 4 27 1 30 -7 3 -7 6 -5 6 6 1 17 31 25 31 8 0
-5 9 -7 20 -4 16 4 20 0 21 -23 l1 -29 8 25 c6 18 8 20 9 7 1 -10 -4 -27 -9
-38 -7 -12 -7 -19 -1 -19 5 0 11 -10 13 -22 2 -13 8 -22 13 -21 6 2 13 59 16
130 5 109 3 130 -10 141 -9 7 -15 17 -14 21 1 5 -9 6 -22 3 -14 -2 -25 -8 -25
-13 0 -5 -16 -9 -35 -9 -19 0 -35 5 -35 10 0 15 -19 12 -36 -5 -9 -8 -23 -15
-31 -15 -14 0 -14 2 0 18 10 10 17 22 17 27 0 5 -6 1 -13 -9 -8 -11 -26 -18
-49 -18 -19 0 -41 -4 -49 -10 -10 -7 -8 -8 7 -3 12 3 32 2 44 -3 20 -7 14 -10
-34 -16 -33 -3 -65 -2 -76 4 -13 7 -21 7 -26 -2 -4 -7 -3 -8 4 -4 7 4 12 3 12
-2 0 -13 -25 -22 -60 -22 -17 0 -40 -11 -59 -29 -30 -28 -31 -32 -31 -116 l0
-87 45 4 c25 2 45 0 45 -4 0 -5 -106 -8 -235 -8 l-235 0 0 159 c0 195 2 191
-111 191 l-79 0 0 -75 0 -75 -29 0 c-35 0 -53 -20 -50 -57 3 -35 -20 -133 -31
-133 -24 0 -30 80 -9 106 14 17 21 94 8 94 -6 0 -9 -6 -6 -13 3 -9 -5 -12 -29
-9 -28 3 -34 8 -29 22 6 18 -14 28 -80 43 -15 3 -12 5 8 6 15 0 46 -8 67 -19
33 -17 43 -18 60 -8 11 7 20 19 20 26 0 7 -3 11 -7 9 -5 -3 -8 15 -8 40 l0 45
-45 -6 c-25 -3 -62 -8 -83 -12 -23 -4 -43 -2 -51 5 -11 9 -15 9 -19 -1 -3 -10
-8 -11 -26 -1 -29 18 -107 17 -114 -1 -3 -7 -1 -18 4 -23 6 -6 6 -24 0 -49 -5
-21 -9 -31 -10 -21 -1 9 -6 17 -12 17 -6 0 -9 -6 -6 -14 6 -14 -26 -29 -37
-18 -10 10 -6 82 4 82 6 0 10 5 10 11 0 5 -5 7 -12 3 -8 -5 -9 -2 -5 9 6 15
-5 17 -96 17 -67 0 -107 -4 -115 -12 -8 -8 -12 -62 -12 -175 l0 -163 -190 0
-190 0 0 1965 0 1965 3119 0 c2305 0 3122 -3 3127 -11z m-3036 -3616 c11 -19
20 -43 20 -54 0 -21 15 -26 24 -6 3 6 5 -7 3 -30 -2 -29 2 -43 10 -43 9 0 10
-6 3 -22 -5 -13 -11 -35 -14 -50 -4 -16 -10 -28 -15 -28 -4 0 -25 23 -47 51
-21 27 -54 66 -73 85 -28 30 -32 41 -27 66 4 22 1 37 -10 50 -16 17 -14 18 45
16 58 -2 62 -3 81 -35z m298 25 c8 -8 12 -60 12 -170 l0 -158 -90 0 -90 0 0
163 c0 90 3 167 7 170 12 12 148 8 161 -5z m-246 -30 c-7 -7 -12 -8 -12 -2 0
14 12 26 19 19 2 -3 -1 -11 -7 -17z m-267 -8 c3 6 11 8 16 5 16 -11 9 -36 -17
-60 -21 -20 -25 -30 -20 -52 29 -118 31 -183 5 -183 -6 0 -8 4 -4 9 3 5 -9 19
-26 31 -22 16 -27 26 -20 33 15 15 14 27 -4 27 -18 0 -19 5 -4 32 8 15 8 19 0
14 -17 -11 -13 27 6 54 10 14 16 35 14 48 -4 31 17 56 34 42 9 -8 15 -8 20 0z
m-2180 -29 c-14 -12 -73 -25 -60 -13 6 6 21 12 35 15 14 2 27 5 30 6 2 0 0 -3
-5 -8z m4449 -27 c5 -14 4 -15 -9 -4 -17 14 -19 20 -6 20 5 0 12 -7 15 -16z
m-4538 -9 c-11 -8 -24 -15 -30 -15 -5 0 -1 7 10 15 10 8 24 14 29 14 6 0 1 -6
-9 -14z m1384 -38 c0 -18 -45 -1 -48 18 -3 17 -1 17 7 5 9 -13 11 -12 11 5 1
20 1 20 15 1 8 -11 15 -24 15 -29z m-1248 -17 c6 0 5 -7 -3 -17 -11 -13 -11
-17 -1 -20 6 -3 12 -14 12 -24 0 -11 5 -17 10 -14 11 7 12 3 4 -19 -3 -8 -22
-20 -42 -27 -32 -10 -37 -10 -52 9 -15 18 -17 18 -28 3 -9 -13 -11 -9 -11 24
0 22 4 47 9 55 6 10 10 11 10 3 0 -7 9 -13 20 -13 14 0 20 7 20 21 0 27 33 56
38 33 2 -8 8 -14 14 -14z m1286 -3 c2 -10 -3 -17 -12 -17 -10 0 -16 9 -16 21
0 24 23 21 28 -4z m3199 -38 c7 -13 13 -39 13 -57 0 -30 -2 -32 -20 -22 -11 6
-20 17 -20 25 0 8 -2 15 -5 15 -12 0 -45 -36 -45 -48 0 -12 3 -12 16 -1 10 8
18 9 22 2 4 -6 17 -13 30 -17 51 -16 17 -26 -85 -24 -60 1 -97 4 -83 6 32 5
51 31 44 63 -7 34 12 83 30 76 8 -3 22 3 32 13 16 15 22 16 39 5 11 -6 26 -23
32 -36z m-4607 -3 c0 -8 -19 -21 -41 -30 l-42 -17 33 -34 c46 -47 32 -54 -20
-10 -23 19 -46 35 -51 35 -23 0 -5 20 34 39 72 34 87 37 87 17z m202 -28 c15
67 41 17 31 -59 -3 -22 -11 -39 -18 -39 -14 0 -36 75 -34 117 2 22 3 19 8 -12
l6 -40 7 33z m3303 22 c18 -7 33 -7 46 0 21 12 59 -2 59 -22 0 -7 -5 -6 -15 2
-19 16 -45 -3 -45 -32 0 -24 26 -34 45 -18 12 10 15 10 15 -3 0 -21 -34 -31
-59 -18 -12 7 -22 7 -26 1 -3 -5 -12 -7 -19 -4 -7 3 -20 -2 -29 -10 -16 -17
-113 -23 -103 -7 3 5 -1 14 -9 21 -12 10 -15 10 -15 -1 -1 -10 -5 -8 -15 5
-13 17 -15 17 -21 3 -8 -23 -19 -21 -32 6 -8 17 -11 18 -11 5 -1 -10 -5 -18
-11 -18 -5 0 -10 20 -10 45 0 53 14 58 33 13 l14 -33 17 33 c26 51 66 39 66
-20 0 -32 25 -15 28 20 3 30 11 35 59 41 6 0 24 -4 38 -9z m-1062 -28 c35 -58
34 -57 51 -43 16 14 22 4 8 -14 -11 -16 -50 -35 -70 -35 -14 0 -23 14 -34 55
-8 30 -14 56 -12 58 13 12 43 1 57 -21z m-2297 -75 c8 3 14 1 14 -5 0 -5 -17
-10 -37 -10 -35 0 -36 1 -18 14 11 8 21 10 23 5 2 -5 10 -7 18 -4z m4234 -3
c0 -8 -5 -12 -10 -9 -6 4 -8 11 -5 16 9 14 15 11 15 -7z m-3990 -348 c0 -2
-11 -6 -25 -8 -14 -3 -25 -1 -25 3 0 5 11 9 25 9 14 0 25 -2 25 -4z m420 -6
c0 -5 -6 -10 -14 -10 -8 0 -18 5 -21 10 -3 6 3 10 14 10 12 0 21 -4 21 -10z
m420 0 c0 -5 -7 -7 -15 -4 -8 4 -15 8 -15 10 0 2 7 4 15 4 8 0 15 -4 15 -10z
m430 0 c0 -5 -10 -10 -22 -9 -22 0 -22 1 -3 9 11 5 21 9 23 9 1 1 2 -3 2 -9z
m837 4 c-3 -3 -12 -4 -19 -1 -8 3 -5 6 6 6 11 1 17 -2 13 -5z m858 -4 c3 -5 1
-10 -4 -10 -6 0 -11 5 -11 10 0 6 2 10 4 10 3 0 8 -4 11 -10z m-1272 -7 c-7
-2 -19 -2 -25 0 -7 3 -2 5 12 5 14 0 19 -2 13 -5z m850 0 c-7 -2 -19 -2 -25 0
-7 3 -2 5 12 5 14 0 19 -2 13 -5z m2260 0 c-7 -2 -19 -2 -25 0 -7 3 -2 5 12 5
14 0 19 -2 13 -5z m44 1 c-3 -3 -12 -4 -19 -1 -8 3 -5 6 6 6 11 1 17 -2 13 -5z
m70 0 c-3 -3 -12 -4 -19 -1 -8 3 -5 6 6 6 11 1 17 -2 13 -5z m60 0 c-3 -3 -12
-4 -19 -1 -8 3 -5 6 6 6 11 1 17 -2 13 -5z m-4370 -20 c-3 -3 -12 -4 -19 -1
-8 3 -5 6 6 6 11 1 17 -2 13 -5z m426 -1 c-7 -2 -19 -2 -25 0 -7 3 -2 5 12 5
14 0 19 -2 13 -5z m2590 0 c-7 -2 -19 -2 -25 0 -7 3 -2 5 12 5 14 0 19 -2 13
-5z m437 -3 c0 -5 -2 -10 -4 -10 -3 0 -8 5 -11 10 -3 6 -1 10 4 10 6 0 11 -4
11 -10z m-3807 -27 c-7 -2 -19 -2 -25 0 -7 3 -2 5 12 5 14 0 19 -2 13 -5z
m874 1 c-3 -3 -12 -4 -19 -1 -8 3 -5 6 6 6 11 1 17 -2 13 -5z m460 0 c-3 -3
-12 -4 -19 -1 -8 3 -5 6 6 6 11 1 17 -2 13 -5z m-1584 -31 c-7 -2 -19 -2 -25
0 -7 3 -2 5 12 5 14 0 19 -2 13 -5z m1790 0 c-7 -2 -21 -2 -30 0 -10 3 -4 5
12 5 17 0 24 -2 18 -5z m-2886 -9 c-3 -3 -12 -4 -19 -1 -8 3 -5 6 6 6 11 1 17
-2 13 -5z m1600 -20 c-3 -3 -12 -4 -19 -1 -8 3 -5 6 6 6 11 1 17 -2 13 -5z
m40 0 c-3 -3 -12 -4 -19 -1 -8 3 -5 6 6 6 11 1 17 -2 13 -5z m2470 0 c-3 -3
-12 -4 -19 -1 -8 3 -5 6 6 6 11 1 17 -2 13 -5z m-2480 -20 c-3 -3 -12 -4 -19
-1 -8 3 -5 6 6 6 11 1 17 -2 13 -5z m120 0 c-3 -3 -12 -4 -19 -1 -8 3 -5 6 6
6 11 1 17 -2 13 -5z m81 -1 c-10 -2 -26 -2 -35 0 -10 3 -2 5 17 5 19 0 27 -2
18 -5z m95 0 c-13 -2 -33 -2 -45 0 -13 2 -3 4 22 4 25 0 35 -2 23 -4z m195 0
c-15 -2 -42 -2 -60 0 -18 2 -6 4 27 4 33 0 48 -2 33 -4z m100 0 c-10 -2 -28
-2 -40 0 -13 2 -5 4 17 4 22 1 32 -1 23 -4z m150 0 c-15 -2 -42 -2 -60 0 -18
2 -6 4 27 4 33 0 48 -2 33 -4z m1775 0 c-309 -2 -817 -2 -1130 0 -312 1 -59 2
562 2 622 0 877 -1 568 -2z"/>
<path d="M1193 4910 c-13 -5 -23 -14 -23 -20 0 -6 -4 -8 -10 -5 -5 3 -10 1
-10 -4 0 -6 4 -11 10 -11 5 0 7 -7 4 -15 -4 -8 -10 -15 -15 -15 -6 0 -19 -9
-31 -20 -16 -15 -20 -27 -15 -56 9 -51 31 -81 79 -104 45 -21 59 -20 38 5 -7
8 -10 24 -7 35 3 10 -1 24 -9 31 -18 15 -18 40 1 65 8 10 15 29 15 42 0 32 18
62 35 62 20 0 20 -50 0 -76 -19 -25 -19 -44 0 -44 14 0 21 -21 15 -45 -2 -5
-3 -23 -3 -40 1 -22 -1 -24 -4 -7 -7 35 -30 28 -25 -8 2 -17 8 -32 12 -35 14
-8 60 17 60 32 0 8 4 12 8 9 12 -7 38 26 51 66 20 60 -14 128 -76 154 -37 16
-68 17 -100 4z"/>
<path d="M1237 4867 c-11 -29 -9 -43 4 -30 6 6 9 19 7 29 -3 18 -4 18 -11 1z"/>
<path d="M2142 4817 c-12 -13 -22 -27 -22 -31 0 -5 9 3 21 18 24 30 32 32 53
10 18 -17 22 -74 6 -74 -5 0 -10 9 -10 20 0 13 -7 20 -20 20 -13 0 -20 -7 -20
-19 0 -11 -6 -22 -12 -24 -8 -3 -6 -6 5 -6 11 -1 17 6 17 19 0 11 5 20 10 20
6 0 10 -9 10 -20 0 -13 7 -20 19 -20 14 0 20 9 23 36 3 29 -1 39 -20 55 -31
24 -34 24 -60 -4z"/>
<path d="M7004 4820 c16 -5 33 -15 37 -22 7 -10 9 -10 9 -1 0 15 -32 33 -57
32 -10 0 -6 -4 11 -9z"/>
<path d="M6608 4803 c-17 -20 -29 -83 -16 -83 4 0 8 16 8 35 0 40 20 55 48 34
14 -11 13 -9 -2 9 -23 26 -19 26 -38 5z"/>
<path d="M6949 4803 c-13 -16 -12 -17 4 -4 9 7 17 15 17 17 0 8 -8 3 -21 -13z"/>
<path d="M4886 4794 c-22 -21 -20 -40 6 -58 23 -16 103 -22 111 -8 3 4 -16 5
-41 3 -43 -3 -45 -2 -32 14 11 13 11 20 1 36 -11 19 -9 20 36 17 44 -3 48 -5
54 -33 6 -28 7 -28 8 -4 0 14 -4 30 -11 37 -18 18 -113 15 -132 -4z m14 -9
c-7 -8 -10 -22 -6 -30 3 -9 2 -13 -4 -10 -14 8 -13 28 2 43 17 17 23 15 8 -3z"/>
<path d="M7005 4788 c4 -11 0 -18 -12 -21 -15 -4 -16 -5 -1 -6 22 -1 33 18 19
32 -9 9 -11 8 -6 -5z"/>
<path d="M1211 4772 c-11 -21 3 -52 23 -52 8 0 17 7 20 16 8 21 8 21 -9 21 -8
0 -15 -4 -15 -9 0 -5 -5 -6 -10 -3 -7 4 -7 13 0 26 6 10 8 19 6 19 -3 0 -10
-8 -15 -18z"/>
<path d="M5532 4770 c0 -14 2 -19 5 -12 2 6 2 18 0 25 -3 6 -5 1 -5 -13z"/>
<path d="M5900 4783 c0 -6 8 -17 18 -24 16 -13 16 -13 2 6 -8 11 -16 22 -17
24 -2 2 -3 0 -3 -6z"/>
<path d="M5942 4770 c0 -14 2 -19 5 -12 2 6 2 18 0 25 -3 6 -5 1 -5 -13z"/>
<path d="M6022 4770 c0 -14 2 -19 5 -12 2 6 2 18 0 25 -3 6 -5 1 -5 -13z"/>
<path d="M6252 4770 c0 -14 2 -19 5 -12 2 6 2 18 0 25 -3 6 -5 1 -5 -13z"/>
<path d="M5331 4764 c0 -11 3 -14 6 -6 3 7 2 16 -1 19 -3 4 -6 -2 -5 -13z"/>
<path d="M5381 4764 c0 -11 3 -14 6 -6 3 7 2 16 -1 19 -3 4 -6 -2 -5 -13z"/>
<path d="M5511 4764 c0 -11 3 -14 6 -6 3 7 2 16 -1 19 -3 4 -6 -2 -5 -13z"/>
<path d="M5961 4775 c0 -5 3 -16 8 -23 7 -11 9 -10 14 3 4 9 3 14 -2 10 -5 -3
-12 1 -14 7 -3 7 -6 9 -6 3z"/>
<path d="M6081 4764 c0 -11 3 -14 6 -6 3 7 2 16 -1 19 -3 4 -6 -2 -5 -13z"/>
<path d="M6191 4764 c0 -11 3 -14 6 -6 3 7 2 16 -1 19 -3 4 -6 -2 -5 -13z"/>
<path d="M7051 4764 c0 -11 3 -14 6 -6 3 7 2 16 -1 19 -3 4 -6 -2 -5 -13z"/>
<path d="M1430 4742 c-26 -9 -5 -21 30 -18 22 2 40 0 40 -5 0 -5 5 -9 10 -9 8
0 8 6 1 18 -9 15 -53 23 -81 14z"/>
<path d="M6661 4734 c0 -11 3 -14 6 -6 3 7 2 16 -1 19 -3 4 -6 -2 -5 -13z"/>
<path d="M6940 4738 c0 -14 16 -16 33 -3 17 12 16 13 -7 11 -15 0 -26 -4 -26
-8z"/>
<path d="M1563 4727 c5 -15 29 -16 34 -2 2 6 -6 11 -18 12 -12 1 -19 -3 -16
-10z"/>
<path d="M1648 4734 c-3 -5 -2 -18 2 -28 3 -11 9 -15 12 -10 3 5 2 18 -2 28
-3 11 -9 15 -12 10z"/>
<path d="M1775 4730 c-7 -11 22 -26 32 -16 4 3 1 6 -6 6 -7 0 -9 5 -6 10 3 6
2 10 -4 10 -5 0 -13 -5 -16 -10z"/>
<path d="M7026 4724 c-5 -14 -4 -15 9 -4 17 14 19 20 6 20 -5 0 -12 -7 -15
-16z"/>
<path d="M6356 4447 c3 -10 9 -15 12 -12 3 3 0 11 -7 18 -10 9 -11 8 -5 -6z"/>
<path d="M6315 4440 c-3 -6 1 -7 9 -4 18 7 21 14 7 14 -6 0 -13 -4 -16 -10z"/>
<path d="M6346 4398 c3 -5 10 -6 15 -3 13 9 11 12 -6 12 -8 0 -12 -4 -9 -9z"/>
<path d="M1163 4360 c-1 -25 1 -37 4 -27 2 9 7 17 10 17 3 0 12 -8 20 -17 13
-16 13 -16 3 5 -6 12 -15 22 -20 22 -5 0 -11 10 -13 23 -2 12 -4 2 -4 -23z"/>
<path d="M1197 4379 c4 -13 8 -18 11 -10 2 7 -1 18 -6 23 -8 8 -9 4 -5 -13z"/>
<path d="M1292 4388 c-25 -25 -6 -68 29 -68 10 0 20 4 23 9 3 4 -6 6 -19 3
-30 -5 -44 21 -26 49 13 22 10 24 -7 7z"/>
<path d="M1430 4361 c0 -23 2 -41 4 -41 8 0 12 71 4 76 -4 3 -8 -13 -8 -35z"/>
<path d="M1481 4376 c-1 -25 -3 -27 -18 -15 -13 11 -13 8 3 -16 18 -28 19 -28
22 -7 2 12 1 32 -1 45 -4 18 -5 17 -6 -7z"/>
<path d="M1572 4363 c-2 -35 1 -43 16 -43 11 0 13 3 5 8 -6 4 -13 23 -16 42
-4 33 -4 33 -5 -7z"/>
<path d="M1624 4366 c8 -26 13 -31 19 -21 5 10 1 22 -11 35 -19 21 -19 21 -8
-14z"/>
<path d="M1713 4360 c0 -25 2 -35 4 -22 2 12 2 32 0 45 -2 12 -4 2 -4 -23z"/>
<path d="M1747 4380 c3 -11 7 -20 9 -20 2 0 4 9 4 20 0 11 -4 20 -9 20 -5 0
-7 -9 -4 -20z"/>
<path d="M1847 4394 c-11 -11 -8 -26 3 -19 6 3 10 -1 10 -10 0 -11 -5 -15 -14
-12 -14 6 -32 -21 -21 -31 3 -3 5 0 5 7 0 9 9 12 25 9 22 -5 25 -3 19 16 -10
33 -20 47 -27 40z"/>
<path d="M2022 4363 c-2 -39 0 -43 21 -42 16 1 17 3 5 6 -11 3 -18 17 -21 41
l-4 37 -1 -42z"/>
<path d="M2063 4389 c9 -5 17 -18 18 -27 0 -11 2 -12 6 -4 6 15 -14 42 -31 42
-6 0 -3 -5 7 -11z"/>
<path d="M1370 4355 c0 -30 3 -35 23 -34 16 1 18 2 5 6 -19 5 -25 29 -9 35 5
2 3 9 -5 16 -12 11 -14 7 -14 -23z"/>
<path d="M1904 4382 c5 -8 11 -26 15 -40 l8 -27 5 32 c2 18 2 31 0 28 -3 -3
-12 1 -20 8 -13 10 -14 9 -8 -1z"/>
<path d="M1960 4370 c0 -5 5 -10 11 -10 5 0 7 5 4 10 -3 6 -8 10 -11 10 -2 0
-4 -4 -4 -10z"/>
<path d="M1228 4328 c6 -6 18 -8 28 -6 14 3 12 5 -9 10 -19 3 -25 2 -19 -4z"/>
<path d="M1788 4323 c7 -3 16 -2 19 1 4 3 -2 6 -13 5 -11 0 -14 -3 -6 -6z"/>
<path d="M1978 4323 c7 -3 16 -2 19 1 4 3 -2 6 -13 5 -11 0 -14 -3 -6 -6z"/>
<path d="M6601 4164 c0 -11 3 -14 6 -6 3 7 2 16 -1 19 -3 4 -6 -2 -5 -13z"/>
<path d="M1442 4090 c-12 -5 -27 -22 -33 -36 -6 -17 -9 -141 -7 -332 l3 -304
24 -19 c18 -15 39 -19 97 -19 l74 0 0 151 c0 116 3 150 13 146 6 -2 21 0 31 6
24 12 207 17 200 5 -9 -14 71 -9 92 7 10 8 29 15 41 15 12 0 25 5 28 10 8 13
62 13 70 0 4 -6 18 -9 32 -8 30 3 28 19 31 -199 l2 -133 75 0 c122 0 115 -21
115 358 -1 267 -3 320 -16 337 -13 17 -28 20 -112 22 -53 1 -89 -1 -79 -3 11
-4 17 -15 17 -34 0 -25 -5 -31 -37 -39 -20 -6 -40 -8 -44 -5 -4 2 -11 0 -14
-6 -7 -12 -55 -6 -131 16 -40 12 -60 13 -95 4 -106 -28 -149 -33 -181 -24 -30
9 -33 14 -36 52 l-3 42 -67 -1 c-37 0 -77 -4 -90 -9z m248 -136 c0 -16 -6 -20
-52 -28 l-37 -7 10 29 c8 25 14 27 44 24 20 -2 35 -10 35 -18z m433 -114 c3
-11 1 -18 -4 -14 -5 3 -9 12 -9 20 0 20 7 17 13 -6z"/>
<path d="M1678 4093 c7 -3 16 -2 19 1 4 3 -2 6 -13 5 -11 0 -14 -3 -6 -6z"/>
<path d="M1943 4093 c9 -2 23 -2 30 0 6 3 -1 5 -18 5 -16 0 -22 -2 -12 -5z"/>
<path d="M2535 4075 l-25 -24 0 -314 0 -314 23 -21 c23 -22 26 -22 443 -22
l421 0 21 23 c22 23 22 29 22 339 l0 317 -26 20 c-26 20 -37 21 -441 21 l-414
0 -24 -25z m408 -32 c-13 -2 -33 -2 -45 0 -13 2 -3 4 22 4 25 0 35 -2 23 -4z
m-379 -99 c5 -12 2 -15 -10 -10 -12 5 -15 2 -10 -11 6 -14 5 -15 -5 -6 -10 10
-9 15 1 28 16 19 16 19 24 -1z m186 -52 c0 -15 5 -33 11 -39 15 -15 4 -44 -14
-37 -16 6 -22 104 -6 104 5 0 9 -13 9 -28z m80 -22 c0 -5 -4 -10 -10 -10 -5 0
-10 5 -10 10 0 6 5 10 10 10 6 0 10 -4 10 -10z m370 -22 c0 -11 -28 -10 -35 1
-3 6 4 9 15 8 11 -1 20 -5 20 -9z m-95 -8 c3 -5 -1 -10 -9 -10 -9 0 -16 5 -16
10 0 6 4 10 9 10 6 0 13 -4 16 -10z m-270 -10 c3 -6 -1 -7 -9 -4 -18 7 -21 14
-7 14 6 0 13 -4 16 -10z m263 -50 c8 -13 17 -18 25 -13 7 4 18 8 25 9 33 5 23
16 -10 12 -21 -2 -38 0 -38 4 0 4 18 8 40 8 22 0 40 -4 40 -9 0 -13 38 -21 42
-9 2 6 13 8 27 3 21 -6 23 -11 17 -53 -7 -54 5 -47 19 11 13 54 40 58 41 6 1
-21 4 -44 7 -53 11 -28 -15 -72 -43 -71 -26 0 -40 17 -19 24 7 2 9 -1 5 -8
-12 -18 9 -13 28 8 9 10 14 25 10 35 -7 17 -24 22 -24 6 0 -5 -6 -10 -14 -10
-7 0 -19 -12 -25 -27 -10 -25 -17 -28 -59 -30 -26 -1 -41 1 -34 4 6 2 10 8 7
13 -2 4 8 6 24 4 17 -2 34 3 41 11 11 13 8 15 -19 15 -21 0 -31 5 -31 15 0 8
-4 15 -10 15 -5 0 -10 -9 -10 -19 0 -11 -4 -22 -9 -26 -6 -3 -7 9 -4 30 4 23
2 35 -6 35 -6 0 -11 -11 -11 -25 0 -30 -24 -43 -45 -25 -17 14 -17 14 -33 -15
l-11 -20 -2 20 c-1 11 0 25 1 30 9 43 10 65 1 65 -23 0 -9 19 17 23 22 3 19 5
-13 7 l-40 3 35 7 c19 4 37 8 40 9 3 0 11 -8 18 -19z m285 -44 c-10 -30 -21
-56 -25 -56 -4 0 -5 6 -2 14 3 8 1 31 -5 52 -11 40 -6 58 10 34 8 -13 11 -12
20 3 19 33 20 11 2 -47z m-419 38 c-7 -3 -9 -15 -6 -26 4 -17 2 -20 -11 -15
-18 7 -24 -8 -7 -18 6 -3 10 -19 10 -36 0 -22 -5 -29 -19 -29 -23 0 -36 16
-21 25 5 3 10 0 10 -7 0 -10 2 -10 9 1 5 8 3 24 -8 43 -15 27 -15 30 2 42 14
11 15 15 5 19 -7 3 1 5 17 5 17 0 25 -2 19 -4z m52 -31 c20 -48 5 -117 -16
-83 -6 8 -10 10 -10 4 0 -6 -7 -11 -15 -11 -12 0 -14 8 -9 36 9 48 22 81 31
81 5 0 13 -12 19 -27z m-226 -44 c0 -11 -4 -17 -10 -14 -5 3 -10 13 -10 21 0
8 5 14 10 14 6 0 10 -9 10 -21z m332 -56 c-6 -2 -9 -10 -6 -15 4 -7 2 -8 -5
-4 -13 9 -5 26 12 25 9 0 8 -2 -1 -6z m52 -122 c-2 -3 -12 3 -22 13 -16 17
-16 18 5 5 12 -7 20 -15 17 -18z"/>
<path d="M3236 3732 c-4 -18 -5 -36 -2 -39 11 -12 17 5 14 39 l-3 33 -9 -33z"/>
<path d="M3066 3734 c-10 -27 -7 -44 9 -44 10 0 15 10 15 30 0 32 -14 40 -24
14z"/>
<path d="M3106 3734 c-9 -24 -7 -54 4 -54 6 0 10 16 10 35 0 38 -4 44 -14 19z"/>
<path d="M3202 3715 c0 -16 2 -22 5 -12 2 9 2 23 0 30 -3 6 -5 -1 -5 -18z"/>
<path d="M3296 3731 c-4 -7 -5 -15 -2 -18 9 -9 19 4 14 18 -4 11 -6 11 -12 0z"/>
<path d="M3693 4093 c23 -4 27 -9 27 -37 0 -18 -8 -41 -17 -52 -10 -11 -24
-30 -31 -42 -10 -18 -10 -22 2 -22 15 0 29 -27 21 -40 -3 -4 2 -10 10 -14 23
-8 19 -78 -7 -122 -19 -32 -19 -37 -5 -31 21 8 32 -10 17 -28 -9 -11 -9 -15
-1 -15 6 0 11 -12 11 -27 0 -19 3 -24 8 -15 5 7 21 15 37 18 22 4 26 2 22 -11
-5 -10 0 -15 14 -15 14 0 19 -5 16 -14 -3 -8 5 -18 19 -25 28 -12 29 -6 9 42
-19 47 -19 138 0 184 9 20 28 53 43 72 15 19 30 42 34 51 4 9 7 10 7 2 1 -8
18 -4 53 14 44 22 61 26 110 21 32 -3 76 -14 98 -25 l40 -19 9 35 c12 40 1 67
-28 77 -11 3 -22 12 -25 20 -10 26 53 18 91 -11 30 -23 33 -28 20 -43 -8 -9
-17 -37 -20 -62 -5 -40 -2 -55 25 -104 25 -47 31 -69 32 -124 1 -67 1 -67 27
-63 16 2 29 12 32 23 7 26 25 24 30 -3 3 -18 5 -15 7 10 4 47 4 50 12 58 4 4
3 13 -3 20 -5 7 -9 34 -7 61 3 44 5 48 31 51 15 2 27 8 27 13 0 5 8 9 18 10
13 0 12 3 -5 11 -21 10 -22 12 -5 24 16 12 15 13 -6 14 -20 0 -22 4 -16 23 4
12 10 24 14 27 3 3 9 12 13 22 4 11 -1 18 -19 22 -30 8 -31 20 -1 34 16 8 -89
10 -398 10 -231 -1 -408 -3 -392 -5z m67 -33 c0 -20 -5 -30 -15 -30 -10 0 -15
10 -15 30 0 20 5 30 15 30 10 0 15 -10 15 -30z m140 20 c0 -4 -18 -10 -39 -14
-22 -3 -47 -9 -57 -13 -12 -4 -15 -3 -10 5 4 7 3 12 -3 12 -5 0 -12 -8 -14
-17 -3 -11 -5 -7 -6 10 l-1 28 65 -2 c36 -1 65 -5 65 -9z m50 -3 c0 -7 -9 -30
-20 -52 -20 -39 -20 -39 -20 -10 0 45 11 75 26 75 8 0 14 -6 14 -13z m-197
-247 c3 -13 0 -20 -9 -20 -8 0 -14 10 -14 26 0 28 15 25 23 -6z m667 5 c0 -9
-6 -12 -15 -9 -8 4 -12 10 -9 15 8 14 24 10 24 -6z"/>
<path d="M4746 4079 l-26 -20 0 -318 0 -318 23 -21 c23 -22 26 -22 444 -22
l422 0 20 26 c20 26 21 38 21 336 l0 309 -25 24 c-24 25 -24 25 -235 25 -133
0 -210 -4 -210 -10 0 -5 -9 -10 -21 -10 -11 0 -17 5 -14 10 4 6 -25 10 -80 10
-64 0 -93 -4 -113 -17 -26 -17 -26 -17 -13 0 13 16 7 17 -76 17 -76 0 -94 -3
-117 -21z m498 -207 c6 -10 52 -8 76 2 18 7 59 -18 48 -30 -4 -4 -14 -1 -23 6
-19 16 -45 -2 -45 -32 0 -24 23 -33 49 -18 25 13 28 -2 5 -21 -12 -10 -22 -10
-44 -2 -20 8 -31 8 -39 0 -6 -6 -11 -7 -11 -3 0 5 -7 3 -15 -4 -8 -7 -15 -10
-15 -6 0 10 -36 -29 -43 -47 -5 -14 -15 -16 -51 -12 -34 4 -45 2 -48 -9 -2
-11 -5 -12 -15 -1 -9 10 -9 17 2 31 10 12 17 15 22 9 5 -6 20 -12 36 -13 l27
-2 -21 30 c-12 16 -26 27 -31 24 -5 -3 -15 2 -22 11 -12 17 -13 17 -20 -1 -7
-18 -9 -17 -26 6 l-20 25 0 -23 c0 -13 -4 -20 -10 -17 -13 8 -13 82 0 90 5 3
16 -9 25 -26 l17 -31 19 31 c11 18 27 31 39 31 16 0 20 -7 20 -36 0 -29 3 -35
18 -32 9 2 16 10 14 17 -5 22 8 50 26 54 29 8 51 7 56 -1z m0 -148 c22 -8 20
-21 -4 -27 -22 -6 -35 7 -25 23 7 12 8 12 29 4z m53 -10 c-3 -3 -12 -4 -19 -1
-8 3 -5 6 6 6 11 1 17 -2 13 -5z m-343 -120 c-1 -24 -8 -40 -23 -50 -21 -15
-21 -14 -21 35 0 46 2 51 23 51 19 0 22 -5 21 -36z m506 6 c0 -11 -7 -20 -15
-20 -8 0 -15 -9 -15 -20 0 -11 7 -20 15 -20 10 0 15 -10 15 -33 0 -31 -3 -34
-31 -35 -26 -1 -28 2 -18 14 10 12 8 19 -8 37 -22 25 -20 62 3 53 9 -3 12 -1
9 4 -3 6 1 10 9 10 9 0 16 7 16 15 0 8 5 15 10 15 6 0 10 -9 10 -20z"/>
<path d="M5215 3840 c3 -5 16 -10 28 -10 18 0 19 2 7 10 -20 13 -43 13 -35 0z"/>
<path d="M5200 3810 c8 -5 20 -10 25 -10 6 0 3 5 -5 10 -8 5 -19 10 -25 10 -5
0 -3 -5 5 -10z"/>
<path d="M6128 4093 c27 -5 31 -49 5 -69 -17 -12 -16 -13 5 -14 20 0 22 5 22
45 0 43 -1 45 -27 44 -24 -2 -25 -2 -5 -6z"/>
<path d="M4510 4086 c0 -2 8 -10 18 -17 15 -13 16 -12 3 4 -13 16 -21 21 -21
13z"/>
<path d="M6032 4078 c6 -18 28 -21 28 -4 0 9 -7 16 -16 16 -9 0 -14 -5 -12
-12z"/>
<path d="M1642 4045 c-11 -24 -10 -25 21 -24 24 1 26 3 9 6 -18 4 -21 8 -12
18 6 7 7 16 2 19 -5 3 -14 -6 -20 -19z"/>
<path d="M1740 4060 c0 -6 11 -8 28 -4 39 10 40 14 4 14 -18 0 -32 -5 -32 -10z"/>
<path d="M2010 4060 c0 -5 20 -10 44 -10 25 0 48 5 51 10 4 6 -13 10 -44 10
-28 0 -51 -4 -51 -10z"/>
<path d="M4544 3740 c0 -173 2 -244 3 -157 2 86 2 228 0 315 -1 86 -3 15 -3
-158z"/>
<path d="M6098 3980 c-1 -5 -13 -11 -26 -13 -12 -2 -27 -8 -32 -13 -5 -5 -9
-121 -9 -274 0 -146 0 -274 0 -285 0 -16 2 -17 9 -5 7 10 10 11 10 3 0 -17
325 -19 336 -2 4 8 9 7 15 -2 5 -10 14 -10 31 -3 32 14 128 18 108 4 -8 -5
-10 -10 -4 -10 16 0 23 10 17 26 -3 10 -23 14 -62 15 -45 0 -51 2 -33 10 13 5
28 7 33 3 5 -3 9 -1 9 4 0 5 14 7 30 4 27 -4 30 -1 30 22 l0 26 -132 0 -133
-1 50 -17 c56 -19 73 -48 28 -46 -30 1 -95 12 -127 21 -15 4 -18 1 -12 -12 11
-30 -4 -35 -37 -12 -18 12 -34 25 -35 30 -2 4 -10 14 -19 22 -13 13 -12 15 6
15 12 0 29 -5 39 -11 14 -9 27 -9 48 -1 29 10 29 10 -12 11 -23 1 -47 7 -53
15 -7 9 -11 90 -11 250 l-1 236 -29 0 c-15 0 -30 -4 -32 -10z m-8 -286 c0 0
-8 -9 -19 -18 -17 -16 -19 -16 -23 1 -4 14 1 18 19 18 12 0 23 0 23 -1z m-43
-81 c-3 -10 -5 -4 -5 12 0 17 2 24 5 18 2 -7 2 -21 0 -30z m28 -202 c-3 -6
-11 -8 -17 -5 -6 4 -5 9 3 15 16 10 23 4 14 -10z"/>
<path d="M6334 3953 c3 -3 -2 -12 -12 -19 -14 -10 -15 -15 -4 -26 11 -11 12
-10 7 3 -6 17 19 34 36 23 5 -3 9 -1 9 4 0 5 -9 12 -21 15 -12 3 -18 3 -15 0z"/>
<path d="M6339 3889 l-24 -20 28 17 c15 9 27 18 27 20 0 8 -8 4 -31 -17z"/>
<path d="M4000 3735 c0 -104 3 -137 13 -141 8 -3 42 13 78 34 35 21 83 49 107
62 64 36 57 51 -60 120 -57 33 -111 60 -120 60 -16 0 -18 -13 -18 -135z"/>
<path d="M6292 3653 c-19 -36 21 -73 58 -53 20 11 28 54 11 64 -4 3 -6 -5 -4
-17 3 -14 -2 -29 -11 -36 -22 -19 -49 4 -43 36 5 27 1 29 -11 6z"/>
<path d="M6321 3654 c0 -11 3 -14 6 -6 3 7 2 16 -1 19 -3 4 -6 -2 -5 -13z"/>
<path d="M1765 3650 c-3 -5 -1 -10 4 -10 6 0 11 5 11 10 0 6 -2 10 -4 10 -3 0
-8 -4 -11 -10z"/>
<path d="M1815 3650 c-3 -5 3 -10 14 -10 12 0 21 5 21 10 0 6 -6 10 -14 10 -8
0 -18 -4 -21 -10z"/>
<path d="M1769 3618 c-1 -7 -1 -19 0 -25 2 -13 -10 -17 -41 -14 -15 2 -18 -6
-18 -47 l0 -49 35 1 c19 1 38 5 41 9 4 4 13 2 20 -4 26 -21 41 -2 46 58 7 76
3 83 -43 83 -24 0 -39 -5 -40 -12z m18 -40 c-3 -8 -6 -5 -6 6 -1 11 2 17 5 13
3 -3 4 -12 1 -19z m8 -68 c-3 -5 -13 -10 -21 -10 -8 0 -14 5 -14 10 0 6 9 10
21 10 11 0 17 -4 14 -10z"/>
<path d="M1877 3614 c3 -8 0 -26 -7 -40 -12 -21 -11 -27 5 -44 17 -18 17 -20
2 -14 -12 4 -17 1 -17 -10 0 -22 26 -31 44 -17 11 9 15 9 19 -1 3 -10 7 -10
17 -1 10 9 17 9 32 0 16 -10 22 -9 34 8 9 12 11 21 4 23 -6 2 -7 10 -1 21 14
24 -2 45 -31 39 -21 -4 -24 -1 -22 24 2 27 0 28 -42 28 -35 0 -42 -3 -37 -16z
m45 -97 c-2 -5 -10 0 -17 10 -8 10 -9 20 -4 21 5 2 10 13 10 25 1 13 4 8 8
-13 4 -19 5 -39 3 -43z m71 8 c-7 -21 -13 -19 -13 6 0 11 4 18 10 14 5 -3 7
-12 3 -20z m-33 5 c0 -5 -5 -10 -11 -10 -5 0 -7 5 -4 10 3 6 8 10 11 10 2 0 4
-4 4 -10z"/>
<path d="M3898 3455 l-3 -76 85 3 85 3 3 48 c2 28 -1 47 -7 47 -6 0 -11 -16
-11 -35 0 -19 -4 -35 -10 -35 -5 0 -10 18 -10 40 0 22 -4 40 -10 40 -5 0 -10
-22 -10 -50 0 -69 -18 -63 -22 7 -3 65 -23 82 -36 31 l-8 -33 -7 43 c-5 26
-12 42 -21 42 -11 0 -15 -19 -18 -75z m29 -52 c-3 -10 -5 -2 -5 17 0 19 2 27
5 18 2 -10 2 -26 0 -35z m40 0 c-3 -10 -5 -4 -5 12 0 17 2 24 5 18 2 -7 2 -21
0 -30z"/>
<path d="M4218 3519 c-19 -11 -26 -79 -8 -79 6 0 10 13 10 28 0 37 10 46 26
24 15 -21 32 -7 18 15 -14 22 -25 25 -46 12z"/>
<path d="M4167 3493 c-4 -3 -7 -24 -7 -45 0 -27 4 -38 15 -38 11 0 15 12 15
45 0 42 -7 54 -23 38z"/>
<path d="M4090 3473 c1 -10 47 -63 55 -63 11 0 3 26 -14 48 -19 21 -41 30 -41
15z"/>
<path d="M1995 3459 c-4 -6 -5 -12 -2 -15 2 -3 7 2 10 11 7 17 1 20 -8 4z"/>
<path d="M1725 3450 c3 -5 8 -10 11 -10 2 0 4 5 4 10 0 6 -5 10 -11 10 -5 0
-7 -4 -4 -10z"/>
<path d="M1780 3440 c0 -5 5 -10 10 -10 6 0 10 5 10 10 0 6 -4 10 -10 10 -5 0
-10 -4 -10 -10z"/>
<path d="M1896 3442 c-2 -4 4 -9 15 -9 10 -1 19 2 19 8 0 11 -27 12 -34 1z"/>
<path d="M4250 3426 c0 -9 -7 -16 -15 -16 -8 0 -15 5 -15 11 0 5 -4 8 -9 5
-18 -11 1 -46 24 -46 16 0 24 7 27 25 3 14 1 28 -3 31 -5 3 -9 -2 -9 -10z"/>
<path d="M3620 3423 c0 -6 8 -17 18 -24 16 -13 16 -13 2 6 -8 11 -16 22 -17
24 -2 2 -3 0 -3 -6z"/>
<path d="M4090 3405 c0 -20 5 -25 25 -25 14 0 25 5 25 10 0 6 -7 10 -15 10 -8
0 -15 7 -15 15 0 8 -4 15 -10 15 -5 0 -10 -11 -10 -25z"/>
<path d="M4511 3400 c-13 -11 -19 -20 -14 -20 6 0 18 9 28 20 23 25 17 25 -14
0z"/>
<path d="M1720 3391 c0 -11 279 -11 285 0 3 5 -59 8 -140 8 -80 0 -145 -3
-145 -8z"/>
<path d="M4168 3383 c7 -3 16 -2 19 1 4 3 -2 6 -13 5 -11 0 -14 -3 -6 -6z"/>
<path d="M1741 3274 c0 -11 3 -14 6 -6 3 7 2 16 -1 19 -3 4 -6 -2 -5 -13z"/>
<path d="M5061 3274 c0 -11 3 -14 6 -6 3 7 2 16 -1 19 -3 4 -6 -2 -5 -13z"/>
<path d="M6181 3274 c0 -11 3 -14 6 -6 3 7 2 16 -1 19 -3 4 -6 -2 -5 -13z"/>
<path d="M5208 3253 c5 -21 7 -23 10 -9 2 10 0 22 -6 28 -6 6 -7 0 -4 -19z"/>
<path d="M1850 3250 c0 -11 2 -20 4 -20 2 0 6 9 9 20 3 11 1 20 -4 20 -5 0 -9
-9 -9 -20z"/>
<path d="M1892 3250 c0 -14 2 -19 5 -12 2 6 2 18 0 25 -3 6 -5 1 -5 -13z"/>
<path d="M1955 3250 c2 -31 15 -37 15 -7 0 15 -4 27 -8 27 -5 0 -8 -9 -7 -20z"/>
<path d="M3012 3250 c0 -14 2 -19 5 -12 2 6 2 18 0 25 -3 6 -5 1 -5 -13z"/>
<path d="M3034 3259 c-3 -6 2 -18 12 -27 17 -16 17 -16 5 0 -7 9 -10 22 -6 28
3 5 4 10 1 10 -3 0 -8 -5 -12 -11z"/>
<path d="M3075 3250 c2 -31 15 -37 15 -7 0 15 -4 27 -8 27 -5 0 -8 -9 -7 -20z"/>
<path d="M4171 3243 c-1 -21 -7 -33 -18 -36 -17 -4 -17 -5 0 -6 21 -1 30 18
24 51 -3 18 -5 16 -6 -9z"/>
<path d="M5152 3250 c0 -14 2 -19 5 -12 2 6 2 18 0 25 -3 6 -5 1 -5 -13z"/>
<path d="M5172 3250 c0 -14 2 -19 5 -12 2 6 2 18 0 25 -3 6 -5 1 -5 -13z"/>
<path d="M6292 3250 c0 -14 2 -19 5 -12 2 6 2 18 0 25 -3 6 -5 1 -5 -13z"/>
<path d="M6332 3250 c0 -14 2 -19 5 -12 2 6 2 18 0 25 -3 6 -5 1 -5 -13z"/>
<path d="M6395 3250 c2 -31 15 -37 15 -7 0 15 -4 27 -8 27 -5 0 -8 -9 -7 -20z"/>
<path d="M2886 3246 c6 -16 4 -18 -12 -12 -15 6 -17 5 -6 -5 9 -10 15 -10 24
-1 9 9 9 15 -1 25 -10 10 -11 8 -5 -7z"/>
<path d="M4046 3243 c-6 -14 -5 -15 5 -6 7 7 10 15 7 18 -3 3 -9 -2 -12 -12z"/>
<path d="M5086 3247 c3 -10 9 -15 12 -12 3 3 0 11 -7 18 -10 9 -11 8 -5 -6z"/>
<path d="M5230 3253 c0 -6 8 -17 18 -24 16 -13 16 -13 2 6 -8 11 -16 22 -17
24 -2 2 -3 0 -3 -6z"/>
<path d="M6350 3251 c0 -6 4 -13 10 -16 6 -3 7 1 4 9 -7 18 -14 21 -14 7z"/>
<path d="M4000 3246 c0 -2 8 -10 18 -17 15 -13 16 -12 3 4 -13 16 -21 21 -21
13z"/>
<path d="M4137 3229 c7 -7 15 -10 18 -7 3 3 -2 9 -12 12 -14 6 -15 5 -6 -5z"/>
<path d="M6260 3230 c-9 -6 -10 -10 -3 -10 6 0 15 5 18 10 8 12 4 12 -15 0z"/>
<path d="M3048 3203 c6 -2 18 -2 25 0 6 3 1 5 -13 5 -14 0 -19 -2 -12 -5z"/>
<path d="M5248 3203 c7 -3 16 -2 19 1 4 3 -2 6 -13 5 -11 0 -14 -3 -6 -6z"/>
<path d="M5261 3134 c0 -11 3 -14 6 -6 3 7 2 16 -1 19 -3 4 -6 -2 -5 -13z"/>
<path d="M1160 2568 c0 -21 2 -38 4 -38 9 0 12 50 5 62 -6 8 -9 -1 -9 -24z"/>
<path d="M1219 2579 c-7 -13 -7 -19 -1 -15 6 4 12 -6 15 -21 3 -20 4 -16 6 15
1 47 -3 52 -20 21z"/>
<path d="M1260 2585 c-10 -12 -10 -21 -1 -38 l11 -22 -6 23 c-3 13 0 29 6 37
7 8 10 15 7 15 -2 0 -10 -7 -17 -15z"/>
<path d="M1503 2565 c0 -22 2 -30 4 -17 2 12 2 30 0 40 -3 9 -5 -1 -4 -23z"/>
<path d="M1542 2580 c0 -14 2 -19 5 -12 2 6 2 18 0 25 -3 6 -5 1 -5 -13z"/>
<path d="M1625 2568 c-19 -46 -19 -52 -1 -36 8 7 12 16 9 21 -8 14 9 30 18 16
5 -8 9 -9 9 -4 0 6 -5 17 -10 25 -7 12 -12 7 -25 -22z"/>
<path d="M1690 2599 c0 -4 6 -20 13 -37 l13 -31 11 37 c10 32 10 34 -2 19 -13
-18 -14 -18 -24 0 -6 10 -11 15 -11 12z"/>
<path d="M1753 2565 c2 -30 6 -40 20 -41 12 -1 13 -1 2 3 -21 6 -19 30 3 36
15 4 15 5 0 6 -9 0 -19 9 -21 19 -3 9 -5 -1 -4 -23z"/>
<path d="M1812 2563 c-2 -35 1 -43 16 -43 11 0 13 3 5 8 -6 4 -13 23 -16 42
-4 33 -4 33 -5 -7z"/>
<path d="M1859 2588 c7 -9 10 -27 7 -40 l-6 -23 12 23 c10 19 8 26 -7 40 -18
16 -18 16 -6 0z"/>
<path d="M1925 2590 c-8 -13 3 -30 18 -30 8 0 7 3 -2 9 -7 5 -10 14 -7 20 4 6
5 11 2 11 -3 0 -8 -4 -11 -10z"/>
<path d="M1995 2589 c-4 -6 -5 -12 -2 -15 2 -3 7 2 10 11 7 17 1 20 -8 4z"/>
<path d="M2046 2587 c3 -10 9 -15 12 -12 3 3 0 11 -7 18 -10 9 -11 8 -5 -6z"/>
<path d="M2081 2563 c2 -32 3 -33 6 -10 4 27 5 28 19 10 14 -17 14 -17 4 4
-18 38 -30 37 -29 -4z"/>
<path d="M2128 2564 c-2 -19 0 -37 4 -40 4 -3 8 13 8 35 0 51 -6 53 -12 5z"/>
<path d="M2160 2581 c-5 -11 -7 -26 -4 -35 8 -21 42 -30 59 -16 20 17 19 40
-2 40 -14 0 -15 -2 -4 -9 15 -10 7 -31 -13 -31 -25 0 -39 27 -26 49 6 12 8 21
6 21 -3 0 -10 -9 -16 -19z"/>
<path d="M1321 2562 c-1 -13 -10 -26 -23 -32 -16 -6 -18 -9 -7 -9 22 -1 42 24
36 46 -4 14 -5 13 -6 -5z"/>
<path d="M2269 2562 c24 -19 15 -41 -11 -26 -10 5 -10 4 -1 -6 10 -11 15 -11
27 0 18 14 13 26 -17 41 -20 9 -20 9 2 -9z"/>
<path d="M1350 2566 c0 -2 9 -6 20 -9 11 -3 18 -1 14 4 -5 9 -34 13 -34 5z"/>
<path d="M1960 2548 c0 -9 -6 -19 -12 -21 -10 -4 -10 -6 0 -6 14 -1 28 26 18
36 -3 4 -6 -1 -6 -9z"/>
<path d="M2043 2542 c-10 -15 -14 -15 -34 -3 -22 13 -23 13 -10 -2 7 -10 19
-17 26 -17 14 0 41 28 34 35 -3 2 -10 -4 -16 -13z"/>
<path d="M1195 2540 c-3 -5 -1 -10 4 -10 6 0 11 5 11 10 0 6 -2 10 -4 10 -3 0
-8 -4 -11 -10z"/>
<path d="M1655 2540 c3 -5 8 -10 11 -10 2 0 4 5 4 10 0 6 -5 10 -11 10 -5 0
-7 -4 -4 -10z"/>
<path d="M1360 2526 c7 -7 13 -7 20 0 6 6 3 10 -10 10 -13 0 -16 -4 -10 -10z"/>
<path d="M1578 2523 c7 -3 16 -2 19 1 4 3 -2 6 -13 5 -11 0 -14 -3 -6 -6z"/>
<path d="M2590 2343 c-30 -3 -60 -9 -67 -15 -10 -8 -13 -86 -13 -349 l0 -339
26 -10 c15 -6 196 -10 442 -10 362 0 421 2 440 16 22 15 22 16 22 343 0 253
-3 331 -13 345 -11 15 -25 17 -79 14 -36 -1 -64 0 -61 5 4 7 -589 7 -697 0z
m453 -200 c11 -11 59 -13 78 -2 11 6 27 5 43 -1 34 -12 34 -32 1 -24 -29 7
-55 -10 -55 -37 0 -23 31 -41 51 -28 7 5 21 9 29 9 10 -1 8 -7 -9 -20 -27 -23
-43 -25 -71 -7 -17 10 -22 9 -29 -1 -4 -7 -15 -10 -24 -7 -17 7 -82 -48 -82
-68 0 -7 -10 -13 -22 -13 -13 -1 -23 3 -23 8 0 5 -8 4 -19 -1 -10 -6 -22 -7
-26 -3 -3 4 -13 -2 -21 -12 -8 -11 -14 -14 -14 -7 0 7 -4 9 -10 6 -16 -10 -12
21 5 35 11 9 19 10 28 1 8 -6 24 -9 37 -6 32 6 35 12 11 20 -23 7 -29 25 -8
25 6 0 4 5 -6 11 -10 6 -25 8 -34 5 -9 -4 -17 1 -20 14 -5 19 -6 19 -23 -3
l-18 -22 -12 30 c-8 20 -14 25 -17 15 -13 -44 -15 -46 -22 -28 -9 24 -1 108
10 108 5 0 15 -16 24 -36 16 -40 27 -38 45 6 9 21 19 30 35 30 23 0 35 -22 35
-68 0 -17 5 -23 18 -20 12 2 18 15 20 45 3 34 7 43 25 46 37 7 63 7 70 0z m1
-179 c22 -8 20 -21 -4 -27 -11 -3 -20 -1 -20 5 0 5 -4 6 -10 3 -11 -7 -14 8
-3 18 8 9 17 9 37 1z m76 -8 c0 -9 -40 -13 -46 -5 -3 5 6 9 20 9 14 0 26 -2
26 -4z m-426 -113 c9 -31 0 -73 -20 -88 -30 -23 -34 -18 -34 39 0 54 3 58 42
65 4 0 9 -7 12 -16z m606 -18 c0 -14 -4 -25 -10 -25 -5 0 -10 11 -10 25 0 14
5 25 10 25 6 0 10 -11 10 -25z m-33 -40 c-5 -33 0 -40 26 -36 11 2 8 -87 -3
-94 -5 -3 -10 -1 -10 6 0 7 -10 9 -25 6 -24 -4 -25 -3 -9 14 15 17 15 20 -10
50 -30 35 -30 50 2 64 12 5 22 13 22 17 0 5 3 8 6 8 4 0 4 -16 1 -35z"/>
<path d="M3012 2109 c5 -17 48 -25 48 -10 0 6 -4 11 -9 11 -5 0 -17 3 -27 7
-12 4 -15 2 -12 -8z"/>
<path d="M2994 2065 c11 -8 25 -15 30 -15 6 0 2 7 -8 15 -11 8 -25 15 -30 15
-6 0 -2 -7 8 -15z"/>
<path d="M1412 2328 c-9 -9 -12 -99 -12 -343 0 -309 1 -333 18 -348 17 -15 62
-17 443 -17 368 0 428 2 447 16 22 15 22 15 22 348 0 245 -3 335 -12 344 -17
17 -889 17 -906 0z m457 -138 c0 -9 -4 -6 -9 6 -5 12 -13 25 -19 29 -6 3 -11
12 -11 18 0 7 9 1 20 -13 11 -14 19 -32 19 -40z m59 -53 c7 -8 15 -35 18 -61
6 -39 4 -45 -8 -41 -9 4 -20 17 -27 31 l-11 26 -19 -24 c-21 -25 -19 -40 4
-31 8 3 15 1 15 -5 0 -5 11 -13 25 -16 38 -10 22 -22 -37 -30 -29 -4 -48 -10
-43 -14 28 -20 11 -54 -32 -65 -31 -7 -103 13 -103 29 0 8 6 11 15 8 11 -5 15
2 15 26 0 31 1 32 36 28 31 -4 34 -3 18 9 -16 11 -16 13 -1 19 13 5 17 19 17
60 0 50 2 54 24 54 13 0 29 7 36 15 13 16 36 9 58 -18z m-212 -137 c0 -28 -13
-25 -18 4 -3 15 -1 23 6 20 7 -3 12 -13 12 -24z m-31 -57 c-11 -7 -26 -13 -34
-13 -12 1 -10 6 8 20 12 11 28 17 34 13 6 -4 3 -11 -8 -20z m294 -4 c-13 -10
-41 -25 -62 -33 -34 -13 -39 -13 -44 1 -8 20 26 48 41 33 14 -14 20 -13 46 10
12 11 27 17 33 13 5 -3 -1 -14 -14 -24z m86 -9 c14 -6 16 -9 5 -10 -8 -1 -25
-3 -37 -4 -14 -2 -23 3 -23 11 0 15 25 16 55 3z m-270 -208 c-3 -3 -11 0 -18
7 -9 10 -8 11 6 5 10 -3 15 -9 12 -12z m125 14 c0 -3 -4 -8 -10 -11 -5 -3 -10
-1 -10 4 0 6 5 11 10 11 6 0 10 -2 10 -4z"/>
<path d="M3632 2328 c-15 -15 -17 -665 -2 -688 8 -13 71 -15 444 -18 426 -3
436 -2 456 18 19 19 20 32 20 341 0 202 -4 327 -10 340 -10 18 -23 19 -175 19
l-165 0 0 -24 c0 -42 -11 -56 -41 -56 -25 0 -30 5 -39 40 l-11 40 -232 0
c-168 0 -236 -3 -245 -12z m658 -48 c0 -5 -4 -10 -10 -10 -5 0 -10 5 -10 10 0
6 5 10 10 10 6 0 10 -4 10 -10z m-410 -12 c0 -4 -4 -8 -9 -8 -6 0 -12 4 -15 8
-3 5 1 9 9 9 8 0 15 -4 15 -9z m115 4 c-9 -9 -105 -11 -105 -2 0 4 25 7 56 8
30 0 53 -3 49 -6z m55 -2 c0 -5 -7 -10 -15 -10 -8 0 -15 5 -15 10 0 6 7 10 15
10 8 0 15 -4 15 -10z m-140 -154 c-7 -7 -14 -6 -21 1 -9 9 -7 12 9 10 14 -1
18 -5 12 -11z m30 -26 c0 -5 -5 -10 -11 -10 -5 0 -7 5 -4 10 3 6 8 10 11 10 2
0 4 -4 4 -10z m11 -217 c-12 -20 -14 -14 -5 12 4 9 9 14 11 11 3 -2 0 -13 -6
-23z m-30 -6 c-10 -9 -11 -8 -5 6 3 10 9 15 12 12 3 -3 0 -11 -7 -18z m140 0
c-10 -9 -11 -8 -5 6 3 10 9 15 12 12 3 -3 0 -11 -7 -18z m159 -111 c0 -12 -21
-15 -99 -18 -168 -5 -271 1 -271 18 0 12 31 14 185 14 154 0 185 -2 185 -14z"/>
<path d="M4831 2308 c0 -20 -6 -40 -11 -43 -6 -4 -19 -24 -30 -45 -16 -31 -17
-38 -5 -34 14 6 21 -11 16 -38 0 -5 4 -8 11 -8 6 0 9 -3 5 -6 -7 -7 15 -33 24
-28 4 2 9 -5 12 -16 3 -11 1 -20 -4 -20 -5 0 -9 5 -9 11 0 5 -4 8 -9 5 -5 -3
-7 -14 -4 -24 2 -10 -5 -28 -16 -41 -26 -30 -26 -38 0 -46 15 -5 17 -10 10
-19 -13 -16 -4 -26 23 -26 15 0 17 -3 8 -9 -10 -6 -9 -10 7 -14 12 -3 21 -1
21 4 0 5 4 9 10 9 5 0 7 -6 4 -14 -3 -9 3 -17 16 -21 16 -5 18 -10 10 -20 -9
-10 -5 -15 18 -20 33 -7 50 -4 147 24 38 12 82 21 96 21 15 0 62 9 105 21 105
28 144 34 144 21 0 -17 -275 -86 -385 -96 -27 -3 -51 -5 -52 -5 -2 -1 -3 -5
-3 -10 0 -17 165 -38 174 -22 4 6 13 11 19 11 7 0 6 -4 -3 -10 -10 -7 -11 -10
-2 -10 7 0 15 7 19 16 5 13 7 13 14 2 8 -11 11 -11 18 1 5 7 14 11 20 7 5 -4
19 2 31 14 24 24 34 26 26 3 -4 -9 5 -5 21 11 15 15 29 23 31 17 2 -6 13 -2
25 10 12 11 27 17 35 14 7 -2 10 0 7 5 -3 6 0 10 7 11 21 1 50 7 51 11 13 26
26 43 33 43 18 0 35 17 30 30 -3 8 0 16 7 19 9 5 9 7 0 12 -8 3 -13 26 -13 59
0 51 1 54 29 60 28 6 52 35 29 35 -7 0 -7 4 1 14 10 11 8 16 -7 21 -19 6 -19
7 4 51 13 25 20 42 14 39 -16 -10 -41 20 -27 34 8 8 -20 11 -113 11 l-124 0
33 -28 c29 -24 32 -30 23 -52 -6 -14 -16 -45 -22 -70 -7 -26 -22 -52 -36 -63
-30 -22 -30 -14 -4 73 l19 64 -40 38 -41 38 -107 0 -108 0 -22 -52 -21 -53 4
48 c3 45 2 47 -18 40 -11 -3 -33 -7 -48 -7 -14 -1 -24 -4 -21 -8 5 -10 -29
-10 -43 0 -6 4 -14 14 -17 22 -4 12 -6 11 -6 -3 -1 -10 -7 -28 -13 -40 -12
-21 -13 -20 -19 18 l-6 40 -2 -37z m341 -79 c19 -10 19 -11 -7 -25 -36 -19
-45 -18 -45 4 0 33 17 40 52 21z m22 -70 c-11 -23 -18 -28 -24 -19 -4 7 -13 9
-19 6 -7 -5 -11 1 -11 14 0 16 4 20 19 15 11 -3 22 -1 26 5 16 25 24 7 9 -21z
m59 -199 c-3 -11 -12 -20 -20 -20 -8 0 -12 3 -10 8 2 4 7 15 10 25 9 24 27 12
20 -13z m-133 11 c0 -12 -20 -25 -27 -18 -7 7 6 27 18 27 5 0 9 -4 9 -9z"/>
<path d="M5842 2328 c-9 -9 -12 -99 -12 -345 l0 -333 24 -15 c18 -12 44 -15
97 -13 l74 3 0 147 0 147 60 11 c68 14 65 14 165 5 73 -6 171 12 186 36 8 14
47 10 68 -6 11 -8 28 -13 38 -9 17 5 18 -5 18 -165 l0 -171 78 0 c131 0 122
-28 122 364 0 245 -3 335 -12 344 -8 8 -45 12 -100 12 l-88 0 0 -33 c0 -32 -2
-33 -57 -45 -62 -14 -97 -12 -180 12 -28 7 -54 12 -57 9 -4 -4 -34 -13 -106
-29 -36 -9 -104 -9 -118 0 -7 4 -12 25 -12 47 l0 39 -88 0 c-55 0 -92 -4 -100
-12z m276 -119 c-10 -5 -18 -17 -18 -25 0 -8 -4 -13 -9 -10 -5 4 -21 2 -36 -4
-24 -9 -26 -8 -23 12 3 23 30 35 78 37 22 0 23 -1 8 -10z m429 -131 c-3 -8 -6
-5 -6 6 -1 11 2 17 5 13 3 -3 4 -12 1 -19z"/>
<path d="M6465 2310 c-26 -6 -22 -8 23 -9 33 -1 51 3 47 9 -7 11 -26 11 -70 0z"/>
<path d="M6068 2298 c-5 -14 15 -38 31 -38 6 0 11 5 11 10 0 6 -7 10 -16 10
-10 0 -14 6 -10 15 3 8 1 15 -3 15 -5 0 -11 -6 -13 -12z"/>
<path d="M6183 2303 c9 -2 25 -2 35 0 9 3 1 5 -18 5 -19 0 -27 -2 -17 -5z"/>
<path d="M6273 2303 c9 -2 23 -2 30 0 6 3 -1 5 -18 5 -16 0 -22 -2 -12 -5z"/>
<path d="M6343 2303 c9 -2 25 -2 35 0 9 3 1 5 -18 5 -19 0 -27 -2 -17 -5z"/>
<path d="M6218 1893 c7 -3 16 -2 19 1 4 3 -2 6 -13 5 -11 0 -14 -3 -6 -6z"/>
<path d="M6258 1893 c6 -2 18 -2 25 0 6 3 1 5 -13 5 -14 0 -19 -2 -12 -5z"/>
<path d="M6185 1838 c-4 -24 -10 -35 -12 -25 -3 9 -11 17 -19 17 -10 0 -14
-13 -14 -50 0 -42 3 -50 19 -50 11 0 21 9 24 21 3 12 10 18 16 14 7 -4 11 9
11 36 0 58 9 45 12 -19 3 -45 6 -52 24 -52 11 0 25 5 32 12 9 9 12 9 12 1 0
-7 16 -11 40 -10 22 1 40 5 40 9 0 5 8 3 19 -3 10 -7 26 -9 35 -6 20 8 21 37
1 37 -8 0 -15 5 -15 10 0 5 6 9 13 7 6 -1 12 7 12 18 0 15 -7 20 -25 20 -22 0
-25 -4 -24 -32 1 -18 -3 -33 -8 -33 -7 0 -8 21 -4 60 l7 60 -41 0 c-37 0 -40
-2 -35 -23 4 -15 0 -28 -10 -37 -14 -12 -16 -12 -15 1 8 50 1 59 -44 59 -43 0
-43 0 -51 -42z m148 2 c3 -11 1 -18 -4 -14 -5 3 -9 12 -9 20 0 20 7 17 13 -6z
m17 -74 c0 -5 -7 -3 -15 4 -8 7 -12 17 -9 22 7 10 24 -9 24 -26z m-56 9 c3 -8
1 -15 -4 -15 -6 0 -10 7 -10 15 0 8 2 15 4 15 2 0 6 -7 10 -15z"/>
<path d="M5010 1700 c0 -67 14 -95 23 -47 l4 22 2 -23 c2 -32 24 -23 32 14 5
23 7 24 8 7 0 -13 6 -23 11 -23 6 0 10 27 10 60 0 45 -4 60 -14 60 -17 0 -26
-21 -27 -68 -2 -34 -2 -33 -12 16 -6 32 -15 52 -23 52 -11 0 -14 -18 -14 -70z"/>
<path d="M5112 1704 c4 -69 18 -90 49 -73 22 11 32 139 12 139 -9 0 -13 -19
-13 -60 0 -33 -4 -60 -10 -60 -6 0 -10 27 -10 60 0 49 -3 60 -16 60 -14 0 -16
-10 -12 -66z"/>
<path d="M5196 1754 c-9 -24 -8 -27 18 -57 14 -16 27 -34 29 -40 2 -7 8 -9 12
-5 8 8 -3 37 -27 70 -7 9 -9 21 -5 25 5 4 12 1 17 -7 11 -19 22 -8 14 14 -8
21 -50 21 -58 0z"/>
<path d="M5270 1698 c0 -51 3 -68 10 -58 13 20 13 130 0 130 -6 0 -10 -31 -10
-72z"/>
<path d="M5315 1761 c-8 -13 -3 -101 5 -101 4 0 7 19 8 42 2 51 8 57 27 32 15
-18 15 -18 13 6 -3 26 -40 41 -53 21z"/>
<path d="M6190 1740 c0 -5 5 -10 10 -10 6 0 10 5 10 10 0 6 -4 10 -10 10 -5 0
-10 -4 -10 -10z"/>
<path d="M6415 1699 c-4 -6 -5 -12 -2 -15 2 -3 7 2 10 11 7 17 1 20 -8 4z"/>
<path d="M6210 1690 c-13 -8 -12 -10 3 -10 9 0 17 5 17 10 0 12 -1 12 -20 0z"/>
<path d="M5350 1670 c0 -5 5 -10 10 -10 6 0 10 5 10 10 0 6 -4 10 -10 10 -5 0
-10 -4 -10 -10z"/>
<path d="M5194 1654 c3 -9 6 -18 6 -20 0 -2 12 -4 28 -3 26 0 26 1 5 9 -13 5
-23 14 -23 20 0 5 -5 10 -11 10 -6 0 -8 -7 -5 -16z"/>
<path d="M5315 1640 c3 -5 15 -10 25 -10 10 0 22 5 25 10 4 6 -7 10 -25 10
-18 0 -29 -4 -25 -10z"/>
<path d="M6150 1641 c0 -9 41 -23 48 -16 2 2 1 8 -3 14 -8 13 -45 15 -45 2z"/>
<path d="M6210 1635 c0 -8 7 -15 15 -15 9 0 12 6 9 15 -4 8 -10 15 -15 15 -5
0 -9 -7 -9 -15z"/>
<path d="M6280 1641 c-43 -7 -29 -19 23 -19 25 0 37 4 37 14 0 15 -4 15 -60 5z"/>
<path d="M6350 1637 c0 -8 9 -14 20 -13 28 1 30 20 3 24 -15 2 -23 -2 -23 -11z"/>
<path d="M6403 1635 c0 -8 6 -15 12 -15 6 0 12 7 12 15 0 8 -6 15 -12 15 -6 0
-12 -7 -12 -15z"/>
<path d="M1185 1510 c-18 -20 -18 -21 5 -43 l24 -22 -18 23 c-18 21 -18 23 -1
42 10 11 16 20 13 20 -3 0 -13 -9 -23 -20z"/>
<path d="M7004 1512 c18 -21 18 -23 1 -42 -10 -11 -14 -20 -8 -20 10 0 43 32
43 42 0 3 -12 14 -27 23 l-28 18 19 -21z"/>
<path d="M3630 1365 c-19 -23 -8 -25 14 -4 11 11 15 19 9 19 -6 0 -16 -7 -23
-15z"/>
<path d="M3728 1373 c7 -3 16 -2 19 1 4 3 -2 6 -13 5 -11 0 -14 -3 -6 -6z"/>
<path d="M1645 1330 c-3 -5 3 -10 15 -10 12 0 18 5 15 10 -3 6 -10 10 -15 10
-5 0 -12 -4 -15 -10z"/>
<path d="M1645 1300 c-3 -6 1 -7 9 -4 18 7 21 14 7 14 -6 0 -13 -4 -16 -10z"/>
<path d="M3020 1130 c-6 -11 -8 -20 -6 -20 3 0 10 9 16 20 6 11 8 20 6 20 -3
0 -10 -9 -16 -20z"/>
<path d="M3104 1106 c-10 -8 -16 -18 -11 -22 4 -4 7 -2 7 4 0 7 6 12 14 12 8
0 18 5 21 10 9 15 -8 12 -31 -4z"/>
<path d="M1838 1143 c7 -3 16 -2 19 1 4 3 -2 6 -13 5 -11 0 -14 -3 -6 -6z"/>
<path d="M1825 1121 c-3 -5 -1 -12 4 -15 13 -8 42 4 35 15 -7 12 -31 12 -39 0z"/>
<path d="M5220 1131 c0 -5 7 -12 16 -15 24 -9 28 -7 14 9 -14 17 -30 20 -30 6z"/>
<path d="M5200 1096 c0 -2 7 -7 16 -10 8 -3 12 -2 9 4 -6 10 -25 14 -25 6z"/>
<path d="M7963 387 l-73 -10 0 -62 0 -62 -61 -7 c-34 -3 -1718 -7 -3743 -7
-3082 -1 -3665 -3 -3585 -14 238 -33 440 -35 3651 -35 3487 0 3487 0 3795 58
l93 17 0 68 c0 37 -1 66 -2 65 -2 -1 -36 -6 -75 -11z"/>
</g>
</svg>
