<svg width="54" height="54" viewBox="0 0 54 54" fill="none" xmlns="http://www.w3.org/2000/svg">
<g clip-path="url(#clip0_1677_6560)">
<path d="M1.6875 53.1561H13.5C13.7238 53.1561 13.9384 53.0672 14.0966 52.9089C14.2549 52.7507 14.3438 52.5361 14.3438 52.3123V43.8748C14.3424 42.7563 13.8975 41.6841 13.1066 40.8932C12.3157 40.1023 11.2435 39.6574 10.125 39.6561H9.95119C10.5692 39.1666 11.0195 38.4969 11.2396 37.7399C11.4597 36.9829 11.4388 36.1762 11.1796 35.4316C10.9205 34.6871 10.436 34.0417 9.79346 33.5849C9.1509 33.1282 8.3821 32.8828 7.59375 32.8828C6.8054 32.8828 6.0366 33.1282 5.39404 33.5849C4.75147 34.0417 4.267 34.6871 4.00786 35.4316C3.74873 36.1762 3.72777 36.9829 3.9479 37.7399C4.16803 38.4969 4.61833 39.1666 5.23631 39.6561H5.0625C3.94403 39.6574 2.87175 40.1023 2.08087 40.8932C1.28999 41.6841 0.84509 42.7563 0.84375 43.8748V52.3123C0.84375 52.5361 0.932645 52.7507 1.09088 52.9089C1.24911 53.0672 1.46372 53.1561 1.6875 53.1561ZM7.59375 34.5936C8.01094 34.5936 8.41877 34.7173 8.76566 34.949C9.11254 35.1808 9.38291 35.5103 9.54256 35.8957C9.70221 36.2811 9.74399 36.7053 9.66259 37.1144C9.5812 37.5236 9.3803 37.8995 9.0853 38.1945C8.7903 38.4895 8.41445 38.6904 8.00527 38.7718C7.59609 38.8532 7.17196 38.8114 6.78653 38.6517C6.40109 38.4921 6.07165 38.2217 5.83987 37.8748C5.60809 37.5279 5.48438 37.1201 5.48438 36.7029C5.48438 36.1435 5.70661 35.607 6.1022 35.2114C6.49778 34.8158 7.03431 34.5936 7.59375 34.5936ZM8.35312 45.4374L7.59375 46.5748L6.83438 45.44L7.59375 43.1703L8.35312 45.4374ZM2.53125 43.8748C2.53125 43.2035 2.79793 42.5596 3.27264 42.0849C3.74734 41.6102 4.39117 41.3436 5.0625 41.3436H6.42347L5.10638 45.2957C5.06566 45.4175 5.05331 45.5471 5.07027 45.6745C5.08723 45.8018 5.13306 45.9236 5.20425 46.0306L6.89175 48.5618C6.9688 48.6774 7.07319 48.7721 7.19565 48.8377C7.31811 48.9032 7.45486 48.9375 7.59375 48.9375C7.73264 48.9375 7.86939 48.9032 7.99185 48.8377C8.11431 48.7721 8.2187 48.6774 8.29575 48.5618L9.98325 46.0306C10.0544 45.9236 10.1003 45.8018 10.1172 45.6745C10.1342 45.5471 10.1218 45.4175 10.0811 45.2957L8.76403 41.3436H10.125C10.7963 41.3436 11.4402 41.6102 11.9149 42.0849C12.3896 42.5596 12.6562 43.2035 12.6562 43.8748V51.4686H2.53125V43.8748Z" fill="#BB0F30"/>
<path d="M48.9375 39.6561H48.7637C49.3817 39.1666 49.832 38.4969 50.0521 37.7399C50.2722 36.9829 50.2513 36.1762 49.9921 35.4316C49.733 34.6871 49.2485 34.0417 48.606 33.5849C47.9634 33.1282 47.1946 32.8828 46.4062 32.8828C45.6179 32.8828 44.8491 33.1282 44.2065 33.5849C43.564 34.0417 43.0795 34.6871 42.8204 35.4316C42.5612 36.1762 42.5403 36.9829 42.7604 37.7399C42.9805 38.4969 43.4308 39.1666 44.0488 39.6561H43.875C42.7565 39.6574 41.6843 40.1023 40.8934 40.8932C40.1025 41.6841 39.6576 42.7563 39.6562 43.8748V52.3123C39.6562 52.5361 39.7451 52.7507 39.9034 52.9089C40.0616 53.0672 40.2762 53.1561 40.5 53.1561H52.3125C52.5363 53.1561 52.7509 53.0672 52.9091 52.9089C53.0674 52.7507 53.1562 52.5361 53.1562 52.3123V43.8748C53.1549 42.7563 52.71 41.6841 51.9191 40.8932C51.1282 40.1023 50.056 39.6574 48.9375 39.6561ZM46.4062 34.5936C46.8234 34.5936 47.2313 34.7173 47.5782 34.949C47.925 35.1808 48.1954 35.5103 48.3551 35.8957C48.5147 36.2811 48.5565 36.7053 48.4751 37.1144C48.3937 37.5236 48.1928 37.8995 47.8978 38.1945C47.6028 38.4895 47.2269 38.6904 46.8178 38.7718C46.4086 38.8532 45.9845 38.8114 45.599 38.6517C45.2136 38.4921 44.8841 38.2217 44.6524 37.8748C44.4206 37.5279 44.2969 37.1201 44.2969 36.7029C44.2969 36.1435 44.5191 35.607 44.9147 35.2114C45.3103 34.8158 45.8468 34.5936 46.4062 34.5936ZM51.4688 51.4686H41.3438V43.8748C41.3438 43.2035 41.6104 42.5596 42.0851 42.0849C42.5598 41.6102 43.2037 41.3436 43.875 41.3436H48.9375C49.6088 41.3436 50.2527 41.6102 50.7274 42.0849C51.2021 42.5596 51.4688 43.2035 51.4688 43.8748V51.4686Z" fill="#BB0F30"/>
<path d="M16.875 25.3125H28.6875C29.1351 25.3125 29.5643 25.1347 29.8807 24.8182C30.1972 24.5018 30.375 24.0726 30.375 23.625V13.5C30.375 13.0524 30.1972 12.6232 29.8807 12.3068C29.5643 11.9903 29.1351 11.8125 28.6875 11.8125H27.8438V10.125C27.8438 8.78234 27.3104 7.49467 26.361 6.54527C25.4116 5.59587 24.1239 5.0625 22.7812 5.0625C21.4386 5.0625 20.1509 5.59587 19.2015 6.54527C18.2521 7.49467 17.7188 8.78234 17.7188 10.125V11.8125H16.875C16.4274 11.8125 15.9982 11.9903 15.6818 12.3068C15.3653 12.6232 15.1875 13.0524 15.1875 13.5V23.625C15.1875 24.0726 15.3653 24.5018 15.6818 24.8182C15.9982 25.1347 16.4274 25.3125 16.875 25.3125ZM19.4062 10.125C19.4062 9.22989 19.7618 8.37145 20.3948 7.73851C21.0277 7.10558 21.8861 6.75 22.7812 6.75C23.6764 6.75 24.5348 7.10558 25.1677 7.73851C25.8007 8.37145 26.1562 9.22989 26.1562 10.125V11.8125H19.4062V10.125ZM16.875 13.5H28.6875V23.625H16.875V13.5Z" fill="#BB0F30"/>
<path d="M22.3594 16.875H23.2031C23.315 16.875 23.4223 16.9194 23.5014 16.9986C23.5806 17.0777 23.625 17.185 23.625 17.2969H25.3125C25.3124 16.8107 25.1444 16.3396 24.8369 15.963C24.5294 15.5865 24.1013 15.3278 23.625 15.2305V14.3438H21.9375V15.2305C21.4258 15.3355 20.9712 15.6266 20.6618 16.0475C20.3524 16.4684 20.2102 16.9892 20.2627 17.5089C20.3152 18.0286 20.5587 18.5104 20.946 18.8609C21.3334 19.2114 21.837 19.4058 22.3594 19.4062H23.2031C23.315 19.4062 23.4223 19.4507 23.5014 19.5298C23.5806 19.6089 23.625 19.7162 23.625 19.8281C23.625 19.94 23.5806 20.0473 23.5014 20.1264C23.4223 20.2056 23.315 20.25 23.2031 20.25H22.3594C22.2475 20.25 22.1402 20.2056 22.0611 20.1264C21.9819 20.0473 21.9375 19.94 21.9375 19.8281H20.25C20.2501 20.3143 20.4181 20.7854 20.7256 21.162C21.0331 21.5385 21.4612 21.7972 21.9375 21.8945V22.7812H23.625V21.8945C24.1367 21.7895 24.5913 21.4984 24.9007 21.0775C25.2101 20.6566 25.3523 20.1358 25.2998 19.6161C25.2473 19.0964 25.0038 18.6146 24.6165 18.2641C24.2291 17.9136 23.7255 17.7192 23.2031 17.7188H22.3594C22.2475 17.7188 22.1402 17.6743 22.0611 17.5952C21.9819 17.5161 21.9375 17.4088 21.9375 17.2969C21.9375 17.185 21.9819 17.0777 22.0611 16.9986C22.1402 16.9194 22.2475 16.875 22.3594 16.875Z" fill="#BB0F30"/>
<path d="M11.0122 31.7958C10.9699 31.9225 10.9584 32.0575 10.9786 32.1896C10.9987 32.3217 11.05 32.4471 11.1281 32.5556C11.2062 32.664 11.3089 32.7523 11.4278 32.8133C11.5467 32.8742 11.6784 32.906 11.812 32.9061C11.9426 32.9073 12.0716 32.8785 12.1892 32.8218L17.3808 30.2222C20.9794 31.5979 24.9675 31.5475 28.5301 30.0813C31.1047 31.265 34.0059 31.5356 36.755 30.8482L40.5324 33.3559C40.6734 33.4491 40.8392 33.4978 41.0082 33.4957C41.1772 33.4937 41.3416 33.4409 41.4803 33.3442C41.6189 33.2476 41.7254 33.1115 41.7858 32.9537C41.8462 32.7958 41.8578 32.6235 41.8192 32.459L40.9839 28.9405C43.1718 27.4193 44.8231 25.2456 45.7019 22.7298C46.5807 20.2141 46.642 17.485 45.8771 14.9323C45.1123 12.3796 43.5603 10.1339 41.4429 8.51595C39.3255 6.89796 36.751 5.99045 34.087 5.92301C32.7159 4.39168 31.0479 3.15491 29.1843 2.28778C27.3207 1.42065 25.3003 0.941229 23.2458 0.878622C21.1912 0.816015 19.1454 1.17152 17.2325 1.92357C15.3195 2.67562 13.5793 3.80853 12.1175 5.25354C10.6556 6.69854 9.50266 8.42552 8.72852 10.3296C7.95438 12.2338 7.57521 14.2753 7.61403 16.3305C7.65286 18.3856 8.10886 20.4114 8.95436 22.2849C9.79987 24.1584 11.0172 25.8406 12.5326 27.2294L11.0122 31.7958ZM44.7183 18.5624C44.7211 20.4189 44.2506 22.2455 43.351 23.8695C42.4515 25.4935 41.1526 26.8613 39.5773 27.8436C39.4285 27.9376 39.3128 28.0757 39.2464 28.2386C39.18 28.4016 39.1662 28.5812 39.2069 28.7524L39.6828 30.7647L37.3718 29.2299C37.2714 29.1629 37.1578 29.1184 37.0387 29.0993C36.9196 29.0802 36.7978 29.0871 36.6816 29.1194C34.6761 29.6904 32.5479 29.6661 30.5559 29.0494C32.3136 28.0067 33.8418 26.6188 35.0483 24.9693C36.2549 23.3199 37.1148 21.4431 37.5761 19.4522C38.0375 17.4614 38.0907 15.3976 37.7326 13.3856C37.3746 11.3736 36.6126 9.45499 35.4927 7.74551C38.0637 8.16108 40.4032 9.47719 42.0932 11.4587C43.7832 13.4402 44.7136 15.9581 44.7183 18.5624ZM9.28079 16.0311C9.27863 13.1341 10.2078 10.3131 11.9311 7.98435C13.6545 5.65563 16.0808 3.94256 18.852 3.0979C21.6231 2.25325 24.5925 2.32177 27.3217 3.29334C30.051 4.2649 32.3957 6.08807 34.0098 8.49379C35.6239 10.8995 36.422 13.7604 36.2862 16.6543C36.1504 19.5481 35.088 22.3217 33.2557 24.5657C31.4234 26.8098 28.9183 28.4054 26.1101 29.1171C23.3018 29.8289 20.3392 29.6191 17.6592 28.5186C17.5478 28.4729 17.4279 28.4516 17.3075 28.4561C17.1871 28.4607 17.0692 28.4909 16.9614 28.5448L13.2565 30.401L14.3104 27.237C14.3637 27.0774 14.3681 26.9056 14.3229 26.7435C14.2778 26.5814 14.1853 26.4365 14.0573 26.3274C12.5603 25.0617 11.3574 23.4848 10.5325 21.7065C9.70755 19.9282 9.28039 17.9914 9.28079 16.0311Z" fill="#BB0F30"/>
</g>
<defs>
<clipPath id="clip0_1677_6560">
<rect width="54" height="54" fill="white"/>
</clipPath>
</defs>
</svg>
