<svg width="54" height="54" viewBox="0 0 54 54" fill="none" xmlns="http://www.w3.org/2000/svg">
<g clip-path="url(#clip0_1677_6570)">
<path d="M40.3691 22.9263H41.9507V24.5078H40.3691V22.9263Z" fill="#ffffff"/>
<path d="M43.5332 22.9263H45.1148V24.5078H43.5332V22.9263Z" fill="#ffffff"/>
<path d="M27.0179 52.3756C5.2721 52.4401 -6.44748 26.3056 8.04194 10.1314L6.85988 9.08057C-11.7574 30.8353 10.5845 62.309 37.2497 51.9473L36.6488 50.4844C33.594 51.7393 30.3537 52.3756 27.0179 52.3756Z" fill="#ffffff"/>
<path d="M49.7505 26.2007C49.3412 14.2849 39.7242 4.66798 27.8083 4.25868V0.0258888C20.3717 -0.160419 13.26 2.61691 7.99126 7.88256L9.10711 9.00336C13.7107 4.42031 19.7634 1.81601 26.2269 1.61947V4.25868C14.0484 4.67705 4.26953 14.713 4.26953 26.9915C5.42903 56.6961 47.595 57.3612 49.7505 27.7823H52.3891C52.092 37.1554 46.53 45.76 38.0491 49.8596L38.7372 51.2836C48.1831 46.8283 54.3612 36.6501 53.9832 26.2007H49.7505ZM27.0176 24.6192C28.3256 24.6192 29.3899 25.6834 29.3899 26.9915C29.2596 30.1387 24.775 30.1379 24.6452 26.9915C24.6452 25.6834 25.7095 24.6192 27.0176 24.6192ZM27.0176 48.1581C-0.595036 47.0808 -1.24959 7.90881 26.2268 5.84129V23.1172C24.4242 23.4846 23.0637 25.082 23.0637 26.9915C23.1983 31.766 29.8322 32.3916 30.8919 27.7823H48.1678C47.7504 39.0885 38.4241 48.1581 27.0176 48.1581ZM30.892 26.2007C30.5767 24.6538 29.3554 23.4325 27.8084 23.1172V5.84129C38.8521 6.24912 47.7602 15.1572 48.168 26.2008L30.892 26.2007Z" fill="#ffffff"/>
<path d="M36.3087 16.268H35.518V13.6321H38.4175V12.0505H35.518V10.7573H33.9364V12.0505H33.1456C31.5469 12.0505 30.2461 13.3512 30.2461 14.95C30.2461 16.5489 31.5469 17.8496 33.1456 17.8496H33.9364V20.4855H31.0369V22.0671H33.9364V23.3603H35.518V22.0671H36.3087C40.1556 21.9076 40.1538 16.4266 36.3087 16.268ZM33.9364 16.268H33.1456C32.4188 16.268 31.8277 15.6768 31.8277 14.95C31.8277 14.2233 32.4188 13.6321 33.1456 13.6321H33.9364V16.268ZM36.3087 20.4855H35.518V17.8496H36.3087C38.0573 17.922 38.0566 20.4135 36.3087 20.4855Z" fill="#ffffff"/>
<path d="M9.27734 26.2007H13.4948V27.7822H9.27734V26.2007Z" fill="#ffffff"/>
<path d="M26.2266 40.5137H27.8081V44.7312H26.2266V40.5137Z" fill="#ffffff"/>
<path d="M13.9121 15.0068L15.0303 13.8887L18.012 16.8704L16.8939 17.9886L13.9121 15.0068Z" fill="#ffffff"/>
<path d="M36.0137 37.1128L37.1318 35.9946L40.1136 38.9764L38.9954 40.0946L36.0137 37.1128Z" fill="#ffffff"/>
<path d="M13.9102 38.9736L16.8919 35.9919L18.0101 37.11L15.0283 40.0918L13.9102 38.9736Z" fill="#ffffff"/>
</g>
<defs>
<clipPath id="clip0_1677_6570">
<rect width="54" height="54" fill="white"/>
</clipPath>
</defs>
</svg>
