<svg width="28" height="27" viewBox="0 0 28 27" fill="none" xmlns="http://www.w3.org/2000/svg">
<mask id="path-1-outside-1_312_1843" maskUnits="userSpaceOnUse" x="0" y="0" width="28" height="27" fill="black">
<rect fill="white" width="28" height="27"/>
<path d="M27.1337 15.1731C27.0129 15.473 26.7814 15.5842 26.4701 15.5759C26.199 15.5683 25.9279 15.581 25.6568 15.5721C25.2988 15.5606 25.084 15.3624 25.084 15.0593C25.084 14.7531 25.2988 14.5613 25.6594 14.5543C25.9132 14.5492 26.1683 14.5664 26.4215 14.5498C26.7392 14.5293 26.9841 14.624 27.1331 14.9174L27.1337 15.1731Z"/>
<path d="M14.0833 9.40311C16.108 9.40311 18.1328 9.41078 20.1576 9.398C20.7343 9.39416 21.1416 9.62177 21.4491 10.1032C22.3224 11.472 23.2111 12.8313 24.0928 14.1943C24.5064 14.833 24.4764 15.324 23.977 15.8847C21.0073 19.2208 18.0344 22.5537 15.0672 25.891C14.681 26.3258 14.2341 26.5259 13.6607 26.3386C13.4094 26.2568 13.2278 26.0771 13.0565 25.8847C10.76 23.3049 8.46282 20.7265 6.16503 18.1474C5.50843 17.4102 4.85182 16.6737 4.19586 15.9372C3.64603 15.3196 3.60895 14.8541 4.05521 14.1675C4.93494 12.8127 5.82234 11.4631 6.69184 10.1019C7.00065 9.61857 7.4079 9.39608 7.98395 9.39928C10.0171 9.41206 12.0508 9.40439 14.0839 9.40439L14.0833 9.40311ZM22.8857 15.574H22.5967C21.0661 15.574 19.5355 15.5779 18.005 15.5695C17.8112 15.5683 17.7313 15.6201 17.6725 15.8125C16.8503 18.508 16.0173 21.1996 15.1887 23.8931C15.1503 24.0171 15.0825 24.1373 15.0979 24.317C17.6936 21.4035 20.265 18.5163 22.8857 15.574ZM13.0539 24.3445C13.0373 24.2358 13.0367 24.2019 13.0271 24.1712C12.1627 21.3639 11.2964 18.5572 10.4371 15.7486C10.3872 15.5862 10.2958 15.5727 10.1577 15.5727C8.60155 15.5759 7.04476 15.574 5.48797 15.5766C5.42659 15.5766 5.35307 15.5459 5.28849 15.6271C7.85992 18.5137 10.432 21.4003 13.0539 24.3445ZM16.679 15.5855C16.578 15.5811 16.5032 15.5747 16.4284 15.5747C14.8556 15.5747 13.2828 15.5804 11.71 15.5683C11.4613 15.5663 11.4607 15.6399 11.5221 15.8368C12.3411 18.4792 13.1537 21.1235 13.9714 23.7659C13.9931 23.8362 13.9835 23.9353 14.0941 23.9781C14.956 21.1804 15.8146 18.3929 16.679 15.5855ZM5.07303 14.5325H9.7984C9.77282 14.4788 9.76196 14.4475 9.74405 14.42C9.01073 13.2852 8.27229 12.1536 7.546 11.0142C7.4111 10.802 7.36827 10.9388 7.29922 11.0456C6.58635 12.1427 5.87285 13.2398 5.16063 14.3375C5.12482 14.3932 5.07176 14.4411 5.07303 14.5325ZM23.0609 14.553C23.0532 14.4993 23.0564 14.4795 23.0481 14.4673C22.2975 13.3031 21.545 12.1408 20.7957 10.9752C20.7011 10.8282 20.6595 10.9196 20.6064 11.0015C19.8821 12.1216 19.1571 13.2417 18.434 14.3631C18.4039 14.4098 18.3381 14.459 18.3713 14.5178C18.4116 14.5888 18.4947 14.5504 18.5574 14.5504C19.4333 14.553 20.3092 14.5524 21.185 14.5524C21.8052 14.5524 22.4254 14.553 23.0609 14.553ZM19.7516 10.444H14.9956C15.7935 11.6772 16.5728 12.8811 17.3739 14.1195C18.1712 12.8869 18.9531 11.6785 19.7516 10.444ZM8.38418 10.4376C9.18399 11.6734 9.9659 12.8811 10.7612 14.1106C11.5611 12.8728 12.3404 11.6664 13.1345 10.4376H8.38418ZM16.422 14.544C16.3612 14.4424 16.3241 14.3765 16.2832 14.3132C15.5915 13.243 14.8959 12.1759 14.2111 11.1012C14.0903 10.912 14.0366 10.9152 13.9177 11.1012C13.2329 12.1753 12.5367 13.2423 11.8462 14.3139C11.8034 14.381 11.7279 14.4379 11.7471 14.5434L16.422 14.544Z"/>
<path d="M14.5837 3.17264C14.5837 3.69114 14.5863 4.20964 14.5831 4.72815C14.5805 5.1028 14.3811 5.33744 14.0774 5.3368C13.7743 5.33616 13.5665 5.10088 13.5646 4.72815C13.5595 3.68283 13.5589 2.63751 13.5646 1.59219C13.5665 1.22201 13.782 0.993125 14.0895 1.00016C14.3913 1.00719 14.5793 1.22712 14.5818 1.59283C14.5863 2.11964 14.5831 2.64646 14.5831 3.17391L14.5837 3.17264Z"/>
<path d="M23.4559 6.15202C23.4559 6.3547 23.3683 6.48832 23.2513 6.60532C22.729 7.12958 22.2079 7.65511 21.6811 8.17426C21.4132 8.43767 21.1076 8.45237 20.8928 8.22796C20.685 8.01123 20.7023 7.71585 20.9561 7.45756C21.481 6.92435 22.0116 6.39625 22.5435 5.86944C22.7117 5.70257 22.9105 5.61882 23.1464 5.72111C23.3446 5.80678 23.4405 5.96789 23.4559 6.15202Z"/>
<path d="M7.39765 7.79513C7.39445 8.24523 7.00253 8.48754 6.67264 8.31619C6.59144 8.274 6.51855 8.21006 6.4527 8.14485C5.93995 7.63594 5.4304 7.12319 4.91829 6.61299C4.80065 6.49599 4.70411 6.36557 4.70027 6.19486C4.69516 5.99283 4.78211 5.83172 4.9624 5.7339C5.14269 5.63672 5.3313 5.63608 5.48858 5.76842C5.68294 5.93209 5.86131 6.11559 6.04225 6.2946C6.42265 6.67181 6.79987 7.05222 7.17899 7.43007C7.30303 7.55346 7.40084 7.68836 7.39765 7.79513Z"/>
<path d="M2.02264 15.5765C1.81997 15.5606 1.61602 15.5989 1.41463 15.5497C1.16145 15.4883 0.991386 15.2818 1.00034 15.044C1.00993 14.7921 1.20429 14.5747 1.47089 14.5632C1.83468 14.5472 2.19974 14.5472 2.56352 14.5613C2.84228 14.5721 3.02896 14.7691 3.04431 15.0267C3.05965 15.2959 2.90877 15.487 2.63065 15.5516C2.42926 15.5983 2.22531 15.5612 2.02264 15.5765Z"/>
<path d="M14.0726 7.05422C14.3494 7.05166 14.577 7.27479 14.5796 7.55163C14.5822 7.82463 14.3533 8.06054 14.0835 8.06438C13.8181 8.06757 13.5758 7.83038 13.5714 7.5625C13.5669 7.29397 13.8009 7.05742 14.0726 7.05422Z"/>
</mask>
<path d="M27.1337 15.1731C27.0129 15.473 26.7814 15.5842 26.4701 15.5759C26.199 15.5683 25.9279 15.581 25.6568 15.5721C25.2988 15.5606 25.084 15.3624 25.084 15.0593C25.084 14.7531 25.2988 14.5613 25.6594 14.5543C25.9132 14.5492 26.1683 14.5664 26.4215 14.5498C26.7392 14.5293 26.9841 14.624 27.1331 14.9174L27.1337 15.1731Z" fill="#BB0F30"/>
<path d="M14.0833 9.40311C16.108 9.40311 18.1328 9.41078 20.1576 9.398C20.7343 9.39416 21.1416 9.62177 21.4491 10.1032C22.3224 11.472 23.2111 12.8313 24.0928 14.1943C24.5064 14.833 24.4764 15.324 23.977 15.8847C21.0073 19.2208 18.0344 22.5537 15.0672 25.891C14.681 26.3258 14.2341 26.5259 13.6607 26.3386C13.4094 26.2568 13.2278 26.0771 13.0565 25.8847C10.76 23.3049 8.46282 20.7265 6.16503 18.1474C5.50843 17.4102 4.85182 16.6737 4.19586 15.9372C3.64603 15.3196 3.60895 14.8541 4.05521 14.1675C4.93494 12.8127 5.82234 11.4631 6.69184 10.1019C7.00065 9.61857 7.4079 9.39608 7.98395 9.39928C10.0171 9.41206 12.0508 9.40439 14.0839 9.40439L14.0833 9.40311ZM22.8857 15.574H22.5967C21.0661 15.574 19.5355 15.5779 18.005 15.5695C17.8112 15.5683 17.7313 15.6201 17.6725 15.8125C16.8503 18.508 16.0173 21.1996 15.1887 23.8931C15.1503 24.0171 15.0825 24.1373 15.0979 24.317C17.6936 21.4035 20.265 18.5163 22.8857 15.574ZM13.0539 24.3445C13.0373 24.2358 13.0367 24.2019 13.0271 24.1712C12.1627 21.3639 11.2964 18.5572 10.4371 15.7486C10.3872 15.5862 10.2958 15.5727 10.1577 15.5727C8.60155 15.5759 7.04476 15.574 5.48797 15.5766C5.42659 15.5766 5.35307 15.5459 5.28849 15.6271C7.85992 18.5137 10.432 21.4003 13.0539 24.3445ZM16.679 15.5855C16.578 15.5811 16.5032 15.5747 16.4284 15.5747C14.8556 15.5747 13.2828 15.5804 11.71 15.5683C11.4613 15.5663 11.4607 15.6399 11.5221 15.8368C12.3411 18.4792 13.1537 21.1235 13.9714 23.7659C13.9931 23.8362 13.9835 23.9353 14.0941 23.9781C14.956 21.1804 15.8146 18.3929 16.679 15.5855ZM5.07303 14.5325H9.7984C9.77282 14.4788 9.76196 14.4475 9.74405 14.42C9.01073 13.2852 8.27229 12.1536 7.546 11.0142C7.4111 10.802 7.36827 10.9388 7.29922 11.0456C6.58635 12.1427 5.87285 13.2398 5.16063 14.3375C5.12482 14.3932 5.07176 14.4411 5.07303 14.5325ZM23.0609 14.553C23.0532 14.4993 23.0564 14.4795 23.0481 14.4673C22.2975 13.3031 21.545 12.1408 20.7957 10.9752C20.7011 10.8282 20.6595 10.9196 20.6064 11.0015C19.8821 12.1216 19.1571 13.2417 18.434 14.3631C18.4039 14.4098 18.3381 14.459 18.3713 14.5178C18.4116 14.5888 18.4947 14.5504 18.5574 14.5504C19.4333 14.553 20.3092 14.5524 21.185 14.5524C21.8052 14.5524 22.4254 14.553 23.0609 14.553ZM19.7516 10.444H14.9956C15.7935 11.6772 16.5728 12.8811 17.3739 14.1195C18.1712 12.8869 18.9531 11.6785 19.7516 10.444ZM8.38418 10.4376C9.18399 11.6734 9.9659 12.8811 10.7612 14.1106C11.5611 12.8728 12.3404 11.6664 13.1345 10.4376H8.38418ZM16.422 14.544C16.3612 14.4424 16.3241 14.3765 16.2832 14.3132C15.5915 13.243 14.8959 12.1759 14.2111 11.1012C14.0903 10.912 14.0366 10.9152 13.9177 11.1012C13.2329 12.1753 12.5367 13.2423 11.8462 14.3139C11.8034 14.381 11.7279 14.4379 11.7471 14.5434L16.422 14.544Z" fill="#BB0F30"/>
<path d="M14.5837 3.17264C14.5837 3.69114 14.5863 4.20964 14.5831 4.72815C14.5805 5.1028 14.3811 5.33744 14.0774 5.3368C13.7743 5.33616 13.5665 5.10088 13.5646 4.72815C13.5595 3.68283 13.5589 2.63751 13.5646 1.59219C13.5665 1.22201 13.782 0.993125 14.0895 1.00016C14.3913 1.00719 14.5793 1.22712 14.5818 1.59283C14.5863 2.11964 14.5831 2.64646 14.5831 3.17391L14.5837 3.17264Z" fill="#BB0F30"/>
<path d="M23.4559 6.15202C23.4559 6.3547 23.3683 6.48832 23.2513 6.60532C22.729 7.12958 22.2079 7.65511 21.6811 8.17426C21.4132 8.43767 21.1076 8.45237 20.8928 8.22796C20.685 8.01123 20.7023 7.71585 20.9561 7.45756C21.481 6.92435 22.0116 6.39625 22.5435 5.86944C22.7117 5.70257 22.9105 5.61882 23.1464 5.72111C23.3446 5.80678 23.4405 5.96789 23.4559 6.15202Z" fill="#BB0F30"/>
<path d="M7.39765 7.79513C7.39445 8.24523 7.00253 8.48754 6.67264 8.31619C6.59144 8.274 6.51855 8.21006 6.4527 8.14485C5.93995 7.63594 5.4304 7.12319 4.91829 6.61299C4.80065 6.49599 4.70411 6.36557 4.70027 6.19486C4.69516 5.99283 4.78211 5.83172 4.9624 5.7339C5.14269 5.63672 5.3313 5.63608 5.48858 5.76842C5.68294 5.93209 5.86131 6.11559 6.04225 6.2946C6.42265 6.67181 6.79987 7.05222 7.17899 7.43007C7.30303 7.55346 7.40084 7.68836 7.39765 7.79513Z" fill="#BB0F30"/>
<path d="M2.02264 15.5765C1.81997 15.5606 1.61602 15.5989 1.41463 15.5497C1.16145 15.4883 0.991386 15.2818 1.00034 15.044C1.00993 14.7921 1.20429 14.5747 1.47089 14.5632C1.83468 14.5472 2.19974 14.5472 2.56352 14.5613C2.84228 14.5721 3.02896 14.7691 3.04431 15.0267C3.05965 15.2959 2.90877 15.487 2.63065 15.5516C2.42926 15.5983 2.22531 15.5612 2.02264 15.5765Z" fill="#BB0F30"/>
<path d="M14.0726 7.05422C14.3494 7.05166 14.577 7.27479 14.5796 7.55163C14.5822 7.82463 14.3533 8.06054 14.0835 8.06438C13.8181 8.06757 13.5758 7.83038 13.5714 7.5625C13.5669 7.29397 13.8009 7.05742 14.0726 7.05422Z" fill="#BB0F30"/>
<path d="M27.1337 15.1731C27.0129 15.473 26.7814 15.5842 26.4701 15.5759C26.199 15.5683 25.9279 15.581 25.6568 15.5721C25.2988 15.5606 25.084 15.3624 25.084 15.0593C25.084 14.7531 25.2988 14.5613 25.6594 14.5543C25.9132 14.5492 26.1683 14.5664 26.4215 14.5498C26.7392 14.5293 26.9841 14.624 27.1331 14.9174L27.1337 15.1731Z" stroke="#BB0F30" stroke-width="0.2" mask="url(#path-1-outside-1_312_1843)"/>
<path d="M14.0833 9.40311C16.108 9.40311 18.1328 9.41078 20.1576 9.398C20.7343 9.39416 21.1416 9.62177 21.4491 10.1032C22.3224 11.472 23.2111 12.8313 24.0928 14.1943C24.5064 14.833 24.4764 15.324 23.977 15.8847C21.0073 19.2208 18.0344 22.5537 15.0672 25.891C14.681 26.3258 14.2341 26.5259 13.6607 26.3386C13.4094 26.2568 13.2278 26.0771 13.0565 25.8847C10.76 23.3049 8.46282 20.7265 6.16503 18.1474C5.50843 17.4102 4.85182 16.6737 4.19586 15.9372C3.64603 15.3196 3.60895 14.8541 4.05521 14.1675C4.93494 12.8127 5.82234 11.4631 6.69184 10.1019C7.00065 9.61857 7.4079 9.39608 7.98395 9.39928C10.0171 9.41206 12.0508 9.40439 14.0839 9.40439L14.0833 9.40311ZM22.8857 15.574H22.5967C21.0661 15.574 19.5355 15.5779 18.005 15.5695C17.8112 15.5683 17.7313 15.6201 17.6725 15.8125C16.8503 18.508 16.0173 21.1996 15.1887 23.8931C15.1503 24.0171 15.0825 24.1373 15.0979 24.317C17.6936 21.4035 20.265 18.5163 22.8857 15.574ZM13.0539 24.3445C13.0373 24.2358 13.0367 24.2019 13.0271 24.1712C12.1627 21.3639 11.2964 18.5572 10.4371 15.7486C10.3872 15.5862 10.2958 15.5727 10.1577 15.5727C8.60155 15.5759 7.04476 15.574 5.48797 15.5766C5.42659 15.5766 5.35307 15.5459 5.28849 15.6271C7.85992 18.5137 10.432 21.4003 13.0539 24.3445ZM16.679 15.5855C16.578 15.5811 16.5032 15.5747 16.4284 15.5747C14.8556 15.5747 13.2828 15.5804 11.71 15.5683C11.4613 15.5663 11.4607 15.6399 11.5221 15.8368C12.3411 18.4792 13.1537 21.1235 13.9714 23.7659C13.9931 23.8362 13.9835 23.9353 14.0941 23.9781C14.956 21.1804 15.8146 18.3929 16.679 15.5855ZM5.07303 14.5325H9.7984C9.77282 14.4788 9.76196 14.4475 9.74405 14.42C9.01073 13.2852 8.27229 12.1536 7.546 11.0142C7.4111 10.802 7.36827 10.9388 7.29922 11.0456C6.58635 12.1427 5.87285 13.2398 5.16063 14.3375C5.12482 14.3932 5.07176 14.4411 5.07303 14.5325ZM23.0609 14.553C23.0532 14.4993 23.0564 14.4795 23.0481 14.4673C22.2975 13.3031 21.545 12.1408 20.7957 10.9752C20.7011 10.8282 20.6595 10.9196 20.6064 11.0015C19.8821 12.1216 19.1571 13.2417 18.434 14.3631C18.4039 14.4098 18.3381 14.459 18.3713 14.5178C18.4116 14.5888 18.4947 14.5504 18.5574 14.5504C19.4333 14.553 20.3092 14.5524 21.185 14.5524C21.8052 14.5524 22.4254 14.553 23.0609 14.553ZM19.7516 10.444H14.9956C15.7935 11.6772 16.5728 12.8811 17.3739 14.1195C18.1712 12.8869 18.9531 11.6785 19.7516 10.444ZM8.38418 10.4376C9.18399 11.6734 9.9659 12.8811 10.7612 14.1106C11.5611 12.8728 12.3404 11.6664 13.1345 10.4376H8.38418ZM16.422 14.544C16.3612 14.4424 16.3241 14.3765 16.2832 14.3132C15.5915 13.243 14.8959 12.1759 14.2111 11.1012C14.0903 10.912 14.0366 10.9152 13.9177 11.1012C13.2329 12.1753 12.5367 13.2423 11.8462 14.3139C11.8034 14.381 11.7279 14.4379 11.7471 14.5434L16.422 14.544Z" stroke="#BB0F30" stroke-width="0.2" mask="url(#path-1-outside-1_312_1843)"/>
<path d="M14.5837 3.17264C14.5837 3.69114 14.5863 4.20964 14.5831 4.72815C14.5805 5.1028 14.3811 5.33744 14.0774 5.3368C13.7743 5.33616 13.5665 5.10088 13.5646 4.72815C13.5595 3.68283 13.5589 2.63751 13.5646 1.59219C13.5665 1.22201 13.782 0.993125 14.0895 1.00016C14.3913 1.00719 14.5793 1.22712 14.5818 1.59283C14.5863 2.11964 14.5831 2.64646 14.5831 3.17391L14.5837 3.17264Z" stroke="#BB0F30" stroke-width="0.2" mask="url(#path-1-outside-1_312_1843)"/>
<path d="M23.4559 6.15202C23.4559 6.3547 23.3683 6.48832 23.2513 6.60532C22.729 7.12958 22.2079 7.65511 21.6811 8.17426C21.4132 8.43767 21.1076 8.45237 20.8928 8.22796C20.685 8.01123 20.7023 7.71585 20.9561 7.45756C21.481 6.92435 22.0116 6.39625 22.5435 5.86944C22.7117 5.70257 22.9105 5.61882 23.1464 5.72111C23.3446 5.80678 23.4405 5.96789 23.4559 6.15202Z" stroke="#BB0F30" stroke-width="0.2" mask="url(#path-1-outside-1_312_1843)"/>
<path d="M7.39765 7.79513C7.39445 8.24523 7.00253 8.48754 6.67264 8.31619C6.59144 8.274 6.51855 8.21006 6.4527 8.14485C5.93995 7.63594 5.4304 7.12319 4.91829 6.61299C4.80065 6.49599 4.70411 6.36557 4.70027 6.19486C4.69516 5.99283 4.78211 5.83172 4.9624 5.7339C5.14269 5.63672 5.3313 5.63608 5.48858 5.76842C5.68294 5.93209 5.86131 6.11559 6.04225 6.2946C6.42265 6.67181 6.79987 7.05222 7.17899 7.43007C7.30303 7.55346 7.40084 7.68836 7.39765 7.79513Z" stroke="#BB0F30" stroke-width="0.2" mask="url(#path-1-outside-1_312_1843)"/>
<path d="M2.02264 15.5765C1.81997 15.5606 1.61602 15.5989 1.41463 15.5497C1.16145 15.4883 0.991386 15.2818 1.00034 15.044C1.00993 14.7921 1.20429 14.5747 1.47089 14.5632C1.83468 14.5472 2.19974 14.5472 2.56352 14.5613C2.84228 14.5721 3.02896 14.7691 3.04431 15.0267C3.05965 15.2959 2.90877 15.487 2.63065 15.5516C2.42926 15.5983 2.22531 15.5612 2.02264 15.5765Z" stroke="#BB0F30" stroke-width="0.2" mask="url(#path-1-outside-1_312_1843)"/>
<path d="M14.0726 7.05422C14.3494 7.05166 14.577 7.27479 14.5796 7.55163C14.5822 7.82463 14.3533 8.06054 14.0835 8.06438C13.8181 8.06757 13.5758 7.83038 13.5714 7.5625C13.5669 7.29397 13.8009 7.05742 14.0726 7.05422Z" stroke="#BB0F30" stroke-width="0.2" mask="url(#path-1-outside-1_312_1843)"/>
</svg>
