<svg width="38" height="38" viewBox="0 0 38 38" fill="none" xmlns="http://www.w3.org/2000/svg">
<path d="M37.6668 6.54516C37.5746 6.2324 37.3189 5.99497 37.0002 5.92632L32.9623 5.05603L32.092 1.01816C32.0232 0.699391 31.7859 0.443633 31.4731 0.351528C31.1601 0.259348 30.8221 0.345516 30.5916 0.576039L25.3696 5.798C22.8931 4.45093 20.1074 3.74147 17.2686 3.74147C12.7353 3.74147 8.47333 5.50684 5.2679 8.71234C2.06224 11.9179 0.296875 16.1798 0.296875 20.7131C0.296875 25.2464 2.06224 29.5084 5.26782 32.7138C8.47326 35.9193 12.7353 37.6847 17.2686 37.6847C21.8018 37.6847 26.0638 35.9194 29.2693 32.7138C32.4748 29.5084 34.2402 25.2464 34.2402 20.7131C34.2402 17.894 33.5396 15.1248 32.2092 12.6597L37.4422 7.42665C37.6728 7.19606 37.759 6.85791 37.6668 6.54516ZM20.9645 20.7131C20.9645 22.751 19.3065 24.4089 17.2686 24.4089C15.2307 24.4089 13.5727 22.751 13.5727 20.7131C13.5727 18.6752 15.2307 17.0172 17.2686 17.0172C17.9667 17.0172 18.6201 17.2119 19.1778 17.5496L16.6394 20.0827C16.2913 20.4301 16.2906 20.994 16.6381 21.3422C16.812 21.5166 17.0403 21.6037 17.2685 21.6037C17.496 21.6037 17.7237 21.5169 17.8976 21.3435L20.4358 18.8106C20.7712 19.3667 20.9645 20.0177 20.9645 20.7131ZM20.4624 16.2677C19.5626 15.6194 18.4598 15.2359 17.2686 15.2359C14.2485 15.2359 11.7914 17.693 11.7914 20.7131C11.7914 23.7331 14.2484 26.1902 17.2686 26.1902C20.2887 26.1902 22.7457 23.7332 22.7457 20.7131C22.7457 19.5259 22.3649 18.4267 21.7206 17.5286L24.5493 14.7058C25.8996 16.3394 26.7118 18.4331 26.7118 20.7131C26.7118 25.92 22.4756 30.1562 17.2686 30.1562C12.0617 30.1562 7.82555 25.92 7.82555 20.7131C7.82555 15.5061 12.0617 11.2699 17.2686 11.2699C19.5556 11.2699 21.6553 12.0874 23.291 13.4451L20.4624 16.2677ZM17.2686 35.9035C8.89252 35.9035 2.07812 29.0891 2.07812 20.7131C2.07812 12.337 8.89252 5.52272 17.2686 5.52272C19.7691 5.52272 22.2231 6.13703 24.412 7.30493C24.4135 7.3128 24.4139 7.32074 24.4156 7.32854L25.3015 11.4388L24.5556 12.183C22.5933 10.5042 20.0474 9.48867 17.2686 9.48867C11.0794 9.48867 6.04423 14.5239 6.04423 20.7131C6.04423 26.9022 11.0794 31.9375 17.2686 31.9375C23.4577 31.9375 28.4929 26.9022 28.4929 20.7131C28.4929 17.9426 27.4834 15.4039 25.8137 13.444L26.5489 12.7103L30.6897 13.6027C30.6912 13.603 30.6928 13.6031 30.6943 13.6034C31.8506 15.7843 32.4588 18.2269 32.4588 20.7131C32.459 29.0891 25.6445 35.9035 17.2686 35.9035ZM30.5907 11.7592L28.0507 11.2117L30.1703 9.09657C30.5184 8.74908 30.519 8.18524 30.1716 7.83708C29.8241 7.48885 29.2603 7.48825 28.9121 7.83575L26.8011 9.9423L26.2591 7.42754L30.6952 2.99149L31.3421 5.99319C31.4158 6.33527 31.6831 6.60245 32.0251 6.67615L35.0268 7.32312L30.5907 11.7592Z" fill="#BB0F30"/>
</svg>
