<svg width="28" height="28" viewBox="0 0 28 28" fill="none" xmlns="http://www.w3.org/2000/svg">
<path d="M13.5974 27.1333C13.3218 26.9832 13.2298 26.7548 13.2346 26.4411C13.2496 25.4059 13.2393 24.37 13.2407 23.3341C13.2407 23.0108 13.3969 22.8008 13.6615 22.7517C13.9567 22.6964 14.252 22.916 14.2548 23.2318C14.265 24.3693 14.2602 25.5068 14.2575 26.6443C14.2575 26.8871 14.0836 27.0153 13.9036 27.1333H13.5974Z" fill="#BB0F30" stroke="#BB0F30" stroke-width="0.3"/>
<path d="M13.7565 6.91797C16.0922 6.93297 18.2171 7.65244 20.1839 8.87042C22.2039 10.1211 23.8944 11.7326 25.3034 13.6421C25.5632 13.9946 25.5652 14.1385 25.3041 14.4877C23.4744 16.9312 21.2594 18.9191 18.4497 20.1725C15.0078 21.7076 11.6062 21.5282 8.28237 19.8043C5.82187 18.5283 3.83532 16.6938 2.18976 14.4788C1.93743 14.1392 1.93607 13.9933 2.18976 13.655C4.0781 11.1332 6.37357 9.10569 9.29644 7.85293C10.7176 7.24395 12.2057 6.92411 13.7571 6.91865L13.7565 6.91797ZM13.6889 20.193C15.1933 20.1868 16.5852 19.8752 17.9171 19.2928C20.4806 18.1723 22.5107 16.3863 24.2381 14.2217C24.3445 14.0888 24.3125 14.0076 24.2225 13.8944C22.759 12.0497 21.0555 10.4792 18.9741 9.35188C15.9189 7.69677 12.7812 7.44717 9.56241 8.85132C7.00643 9.96632 4.98647 11.7531 3.26316 13.9094C3.14381 14.0588 3.20315 14.1433 3.29453 14.2579C4.56774 15.8632 6.03464 17.2578 7.7784 18.3449C9.60128 19.481 11.5633 20.178 13.6889 20.1943V20.193Z" fill="#BB0F30" stroke="#BB0F30" stroke-width="0.3"/>
<path d="M14.2598 3.20819C14.2598 3.73467 14.2618 4.26046 14.2598 4.78693C14.2577 5.15382 14.0545 5.38773 13.7463 5.38569C13.438 5.38364 13.2403 5.15109 13.2396 4.78079C13.2382 3.71966 13.2375 2.65854 13.2396 1.59809C13.2396 1.23052 13.4435 0.997968 13.7524 1.00001C14.0607 1.00206 14.2577 1.23461 14.2591 1.60491C14.2611 2.13957 14.2591 2.67422 14.2591 3.20888L14.2598 3.20819Z" fill="#BB0F30" stroke="#BB0F30" stroke-width="0.3"/>
<path d="M6.74313 7.56788C6.7254 7.75132 6.65652 7.90817 6.48535 8.00501C6.31622 8.10049 6.14437 8.10458 5.97865 8.00365C5.90705 7.96 5.84362 7.90135 5.78361 7.84134C5.11666 7.17643 4.45175 6.50879 3.78411 5.84457C3.64635 5.70749 3.53656 5.55951 3.55975 5.3556C3.58293 5.15579 3.68864 5.00712 3.87958 4.93074C4.07121 4.85436 4.25807 4.88301 4.40128 5.02349C5.13848 5.75046 5.86818 6.48493 6.59992 7.21735C6.69334 7.31146 6.73222 7.43285 6.74381 7.56719L6.74313 7.56788Z" fill="#BB0F30" stroke="#BB0F30" stroke-width="0.3"/>
<path d="M23.4218 4.89126C23.8269 4.90285 24.0635 5.31543 23.8767 5.64755C23.8398 5.71302 23.788 5.77235 23.7348 5.82554C23.0515 6.51091 22.3661 7.19355 21.6828 7.87823C21.5048 8.05691 21.303 8.13465 21.0609 8.02963C20.7178 7.88028 20.6626 7.46019 20.9538 7.16354C21.4414 6.66708 21.9365 6.17811 22.4289 5.68574C22.6328 5.48183 22.8374 5.27793 23.0413 5.07334C23.1538 4.96013 23.2875 4.89603 23.4225 4.88989L23.4218 4.89126Z" fill="#BB0F30" stroke="#BB0F30" stroke-width="0.3"/>
<path d="M6.74353 21.0652C6.73535 21.2309 6.66647 21.3625 6.55463 21.4751C5.85835 22.1707 5.16411 22.869 4.46442 23.5619C4.22233 23.8012 3.93113 23.8114 3.71632 23.6055C3.49332 23.3927 3.49877 23.0899 3.747 22.8397C4.43987 22.14 5.13752 21.4457 5.83448 20.7501C6.00497 20.5796 6.2041 20.5094 6.43597 20.6097C6.6351 20.6956 6.72512 20.8613 6.74421 21.0659L6.74353 21.0652Z" fill="#BB0F30" stroke="#BB0F30" stroke-width="0.3"/>
<path d="M23.9477 23.24C23.93 23.4234 23.8611 23.581 23.6892 23.6771C23.5201 23.7719 23.3483 23.7753 23.1825 23.6744C23.1109 23.6307 23.0475 23.5714 22.9882 23.5121C22.3212 22.8472 21.6563 22.1795 20.9887 21.5153C20.8509 21.3782 20.7411 21.2296 20.765 21.0257C20.7882 20.8259 20.8952 20.6779 21.0862 20.6015C21.2778 20.5251 21.4647 20.5551 21.6072 20.6956C22.3444 21.4226 23.0741 22.157 23.8052 22.8901C23.8986 22.9842 23.9368 23.1056 23.9484 23.24H23.9477Z" fill="#BB0F30" stroke="#BB0F30" stroke-width="0.3"/>
<path d="M13.7755 9.47143C16.1644 9.48234 18.1509 11.34 18.3344 13.735C18.5137 16.0769 16.8375 18.2094 14.5113 18.5988C11.4173 19.117 8.71128 16.4247 9.21251 13.3279C9.26912 12.9794 9.49553 12.781 9.79423 12.8185C10.0977 12.8573 10.2764 13.0913 10.2245 13.452C10.1352 14.0706 10.1748 14.672 10.3828 15.2613C10.9726 16.9273 12.7341 17.927 14.4527 17.571C16.2258 17.2035 17.4533 15.5852 17.3155 13.795C17.1389 11.5003 14.8557 9.9638 12.6585 10.6601C12.5773 10.686 12.4989 10.7208 12.4157 10.7378C12.134 10.7965 11.8865 10.658 11.808 10.4037C11.7276 10.1425 11.8442 9.89697 12.1061 9.77626C12.4811 9.60304 13.2177 9.46802 13.7762 9.47074L13.7755 9.47143Z" fill="#BB0F30" stroke="#BB0F30" stroke-width="0.3"/>
<path d="M13.7419 16.1067C12.6181 16.1033 11.7029 15.1779 11.709 14.0506C11.7152 12.9274 12.6426 12.0156 13.7706 12.0245C14.8835 12.0333 15.7912 12.9513 15.7905 14.0669C15.7905 15.1922 14.8678 16.1101 13.7413 16.1067H13.7419ZM13.759 15.0858C14.3189 15.081 14.7744 14.6173 14.7703 14.056C14.7656 13.4961 14.3025 13.0406 13.7413 13.0454C13.1814 13.0495 12.7258 13.5132 12.7306 14.0744C12.7347 14.6343 13.1984 15.0906 13.7597 15.0858H13.759Z" fill="#BB0F30" stroke="#BB0F30" stroke-width="0.3"/>
<path d="M10.6858 11.0043C10.9675 11.0037 11.2027 11.243 11.1966 11.5233C11.1905 11.7947 10.9613 12.0198 10.6899 12.0211C10.4089 12.0225 10.1737 11.7831 10.1798 11.5015C10.1853 11.2294 10.4144 11.0043 10.6858 11.0037V11.0043Z" fill="#BB0F30" stroke="#BB0F30" stroke-width="0.3"/>
</svg>
